<svg width="549" height="141" viewBox="0 0 549 141" fill="none" xmlns="http://www.w3.org/2000/svg">
<g filter="url(#filter0_d)">
<path d="M91.7147 55.5331H81.0999C80.2324 55.5331 79.5932 55.3349 79.1823 54.9383C78.8171 54.4922 78.6345 53.7983 78.6345 52.8565V4.67666C78.6345 3.73487 78.8171 3.06571 79.1823 2.66916C79.5932 2.22306 80.2324 2 81.0999 2H102.056C108.265 2 112.511 3.33833 114.793 6.01499C117.076 8.69164 118.218 12.1862 118.218 16.4986V26.0156C118.218 30.328 117.076 33.8225 114.793 36.4991C112.511 39.1758 108.265 40.5141 102.056 40.5141H94.1801V52.8565C94.1801 53.7983 93.9747 54.4922 93.5638 54.9383C93.1985 55.3349 92.5822 55.5331 91.7147 55.5331ZM94.0431 15.9037V27.1308H100.207C101.531 27.1308 102.398 26.7591 102.809 26.0156C103.22 25.272 103.425 24.4294 103.425 23.4876V19.547C103.425 18.6052 103.22 17.7625 102.809 17.019C102.398 16.2755 101.531 15.9037 100.207 15.9037H94.0431Z" fill="white" fill-opacity="0.5"/>
<path d="M162.638 55.5331H127.781C126.913 55.5331 126.274 55.3349 125.863 54.9383C125.498 54.4922 125.315 53.7983 125.315 52.8565V4.67666C125.315 3.73487 125.498 3.06571 125.863 2.66916C126.274 2.22306 126.913 2 127.781 2H138.395C139.263 2 139.879 2.22306 140.245 2.66916C140.655 3.06571 140.861 3.73487 140.861 4.67666V41.4807H150.243V29.4357C150.243 28.4939 150.426 27.8248 150.791 27.4282C151.202 26.9821 151.841 26.7591 152.708 26.7591H162.638C163.506 26.7591 164.122 26.9821 164.487 27.4282C164.898 27.8248 165.104 28.4939 165.104 29.4357V52.8565C165.104 53.7983 164.898 54.4922 164.487 54.9383C164.122 55.3349 163.506 55.5331 162.638 55.5331Z" fill="white" fill-opacity="0.5"/>
<path d="M190.806 17.6138L187.588 28.9153H198.339L195.121 17.6138C194.938 17.1677 194.733 16.8455 194.504 16.6473C194.322 16.449 194.094 16.3499 193.82 16.3499H192.108C191.834 16.3499 191.582 16.449 191.354 16.6473C191.172 16.8455 190.989 17.1677 190.806 17.6138ZM186.903 52.8565C186.903 53.7983 186.697 54.4922 186.286 54.9383C185.921 55.3349 185.305 55.5331 184.437 55.5331H174.37C173.503 55.5331 172.864 55.3349 172.453 54.9383C172.088 54.4922 171.905 53.7983 171.905 52.8565V33.2277C171.905 31.7406 172.11 30.0305 172.521 28.0974C172.978 26.1643 173.663 23.9089 174.576 21.3314L180.534 4.4536C180.808 3.61095 181.219 2.99135 181.767 2.59481C182.36 2.19827 183.113 2 184.027 2H202.448C203.316 2 204.024 2.19827 204.571 2.59481C205.165 2.99135 205.599 3.61095 205.873 4.4536L211.831 21.3314C212.744 23.9089 213.406 26.1643 213.817 28.0974C214.273 30.0305 214.501 31.7406 214.501 33.2277V52.8565C214.501 53.7983 214.296 54.4922 213.885 54.9383C213.52 55.3349 212.903 55.5331 212.036 55.5331H201.695C200.782 55.5331 200.097 55.3349 199.641 54.9383C199.23 54.4922 199.024 53.7983 199.024 52.8565V42.4473H186.903V52.8565Z" fill="white" fill-opacity="0.5"/>
<path d="M246.214 55.5331H235.12C234.253 55.5331 233.614 55.3349 233.203 54.9383C232.837 54.4922 232.655 53.7983 232.655 52.8565V43.3395L222.177 28.0974C221.127 26.5608 220.419 25.2225 220.054 24.0824C219.734 22.9424 219.575 21.2323 219.575 18.9522V4.67666C219.575 3.73487 219.757 3.06571 220.122 2.66916C220.533 2.22306 221.172 2 222.04 2H232.586C233.454 2 234.07 2.22306 234.435 2.66916C234.846 3.06571 235.052 3.73487 235.052 4.67666V16.8703C235.052 17.366 235.074 17.8865 235.12 18.4317C235.166 18.9769 235.348 19.4974 235.668 19.9931L238.818 25.3464C239.047 25.7925 239.275 26.1147 239.503 26.313C239.777 26.5112 240.097 26.6104 240.462 26.6104H241.147C241.512 26.6104 241.809 26.5112 242.037 26.313C242.311 26.1147 242.562 25.7925 242.79 25.3464L245.94 19.9931C246.26 19.4974 246.443 18.9769 246.488 18.4317C246.534 17.8865 246.557 17.366 246.557 16.8703V4.67666C246.557 3.73487 246.739 3.06571 247.105 2.66916C247.516 2.22306 248.155 2 249.022 2H259.226C260.094 2 260.71 2.22306 261.075 2.66916C261.486 3.06571 261.692 3.73487 261.692 4.67666V18.9522C261.692 21.2323 261.509 22.9424 261.144 24.0824C260.778 25.2225 260.094 26.5608 259.089 28.0974L248.68 43.4138V52.8565C248.68 53.7983 248.474 54.4922 248.063 54.9383C247.698 55.3349 247.082 55.5331 246.214 55.5331Z" fill="white" fill-opacity="0.5"/>
<path d="M319.623 2H329.827C330.694 2 331.311 2.22306 331.676 2.66916C332.087 3.06571 332.292 3.73487 332.292 4.67666V33.5251C332.292 35.1112 332.224 36.5983 332.087 37.9862C331.995 39.3245 331.653 40.9107 331.059 42.7447L327.635 52.8565C327.407 53.6 327.065 54.2444 326.608 54.7896C326.197 55.2853 325.626 55.5331 324.896 55.5331H315.788C315.057 55.5331 314.395 55.3596 313.802 55.0127C313.208 54.6657 312.82 54.0957 312.638 53.3026L309.487 41.1833C309.35 40.6876 309.168 40.3654 308.939 40.2167C308.757 40.0184 308.529 39.9193 308.255 39.9193H307.638C307.364 39.9193 307.113 40.0184 306.885 40.2167C306.702 40.3654 306.543 40.6876 306.406 41.1833L303.187 53.3026C303.004 54.0461 302.662 54.6161 302.16 55.0127C301.657 55.3596 301.041 55.5331 300.311 55.5331H291.271C290.54 55.5331 289.901 55.2853 289.353 54.7896C288.851 54.2939 288.486 53.6496 288.258 52.8565L284.833 42.596C284.24 40.762 283.875 39.1758 283.738 37.8375C283.646 36.4496 283.601 34.9625 283.601 33.3764V4.67666C283.601 3.73487 283.783 3.06571 284.149 2.66916C284.56 2.22306 285.199 2 286.066 2H296.613C297.48 2 298.096 2.22306 298.462 2.66916C298.872 3.06571 299.078 3.73487 299.078 4.67666V32.038L303.05 22.6697C303.415 21.8271 303.895 21.2323 304.488 20.8853C305.082 20.5383 305.812 20.3648 306.68 20.3648H309.556C310.423 20.3648 311.154 20.5383 311.747 20.8853C312.341 21.2323 312.82 21.8271 313.185 22.6697L317.157 32.038V4.67666C317.157 3.73487 317.34 3.06571 317.705 2.66916C318.116 2.22306 318.755 2 319.623 2Z" fill="white" fill-opacity="0.5"/>
<path d="M342.5 55.5331C341.632 55.5331 340.993 55.3349 340.582 54.9383C340.217 54.4922 340.034 53.7983 340.034 52.8565V44.0086C340.034 43.0669 340.217 42.3977 340.582 42.0012C340.993 41.555 341.632 41.332 342.5 41.332H349.28V16.3499H342.5C341.632 16.3499 340.993 16.1516 340.582 15.755C340.217 15.3089 340.034 14.615 340.034 13.6732V4.67666C340.034 3.73487 340.217 3.06571 340.582 2.66916C340.993 2.22306 341.632 2 342.5 2H371.674C372.541 2 373.157 2.22306 373.523 2.66916C373.934 3.06571 374.139 3.73487 374.139 4.67666V13.6732C374.139 14.615 373.934 15.3089 373.523 15.755C373.157 16.1516 372.541 16.3499 371.674 16.3499H365.031V41.332H371.674C372.541 41.332 373.157 41.555 373.523 42.0012C373.934 42.3977 374.139 43.0669 374.139 44.0086V52.8565C374.139 53.7983 373.934 54.4922 373.523 54.9383C373.157 55.3349 372.541 55.5331 371.674 55.5331H342.5Z" fill="white" fill-opacity="0.5"/>
<path d="M405.879 55.5331H394.784C393.917 55.5331 393.278 55.3349 392.867 54.9383C392.502 54.4922 392.319 53.7983 392.319 52.8565V16.3499H382.252C381.385 16.3499 380.745 16.1516 380.335 15.755C379.969 15.3089 379.787 14.615 379.787 13.6732V4.67666C379.787 3.73487 379.969 3.06571 380.335 2.66916C380.745 2.22306 381.385 2 382.252 2H418.411C419.278 2 419.895 2.22306 420.26 2.66916C420.671 3.06571 420.876 3.73487 420.876 4.67666V13.6732C420.876 14.615 420.671 15.3089 420.26 15.755C419.895 16.1516 419.278 16.3499 418.411 16.3499H408.344V52.8565C408.344 53.7983 408.139 54.4922 407.728 54.9383C407.362 55.3349 406.746 55.5331 405.879 55.5331Z" fill="white" fill-opacity="0.5"/>
<path d="M440.617 55.5331H430.002C429.134 55.5331 428.495 55.3349 428.084 54.9383C427.719 54.4922 427.536 53.7983 427.536 52.8565V4.67666C427.536 3.73487 427.719 3.06571 428.084 2.66916C428.495 2.22306 429.134 2 430.002 2H440.617C441.484 2 442.1 2.22306 442.466 2.66916C442.877 3.06571 443.082 3.73487 443.082 4.67666V20.811H454.519V4.67666C454.519 3.73487 454.701 3.06571 455.067 2.66916C455.477 2.22306 456.117 2 456.984 2H467.599C468.466 2 469.083 2.22306 469.448 2.66916C469.859 3.06571 470.064 3.73487 470.064 4.67666V52.8565C470.064 53.7983 469.859 54.4922 469.448 54.9383C469.083 55.3349 468.466 55.5331 467.599 55.5331H456.984C456.117 55.5331 455.477 55.3349 455.067 54.9383C454.701 54.4922 454.519 53.7983 454.519 52.8565V36.3504H443.082V52.8565C443.082 53.7983 442.877 54.4922 442.466 54.9383C442.1 55.3349 441.484 55.5331 440.617 55.5331Z" fill="white" fill-opacity="0.5"/>
<path d="M32.6399 129.885H21.5456C20.6782 129.885 20.039 129.686 19.6281 129.29C19.2629 128.844 19.0802 128.15 19.0802 127.208V117.691L8.60235 102.449C7.55228 100.912 6.84462 99.5741 6.47938 98.434C6.15979 97.2939 6 95.5839 6 93.3037V79.0282C6 78.0865 6.18262 77.4173 6.54786 77.0207C6.95876 76.5746 7.59794 76.3516 8.46539 76.3516H19.0118C19.8792 76.3516 20.4956 76.5746 20.8608 77.0207C21.2717 77.4173 21.4771 78.0865 21.4771 79.0282V91.2219C21.4771 91.7176 21.5 92.238 21.5456 92.7833C21.5913 93.3285 21.7739 93.849 22.0935 94.3447L25.2437 99.698C25.472 100.144 25.7003 100.466 25.9285 100.665C26.2025 100.863 26.5221 100.962 26.8873 100.962H27.5721C27.9374 100.962 28.2341 100.863 28.4624 100.665C28.7363 100.466 28.9874 100.144 29.2157 99.698L32.3659 94.3447C32.6855 93.849 32.8681 93.3285 32.9138 92.7833C32.9595 92.238 32.9823 91.7176 32.9823 91.2219V79.0282C32.9823 78.0865 33.1649 77.4173 33.5301 77.0207C33.941 76.5746 34.5802 76.3516 35.4477 76.3516H45.6516C46.5191 76.3516 47.1354 76.5746 47.5007 77.0207C47.9116 77.4173 48.117 78.0865 48.117 79.0282V93.3037C48.117 95.5839 47.9344 97.2939 47.5692 98.434C47.2039 99.5741 46.5191 100.912 45.5147 102.449L35.1053 117.765V127.208C35.1053 128.15 34.8998 128.844 34.4889 129.29C34.1237 129.686 33.5073 129.885 32.6399 129.885Z" fill="white" fill-opacity="0.5"/>
<path d="M97.704 115.832C97.704 118.112 97.3844 120.194 96.7453 122.078C96.1518 123.912 95.056 125.498 93.4581 126.836C91.9058 128.125 89.7372 129.141 86.9522 129.885C84.2129 130.628 80.7203 131 76.4743 131C72.2284 131 68.7129 130.628 65.9279 129.885C63.143 129.141 60.9515 128.125 59.3536 126.836C57.8013 125.498 56.7056 123.912 56.0664 122.078C55.4729 120.194 55.1761 118.112 55.1761 115.832V90.4784C55.1761 88.1983 55.4729 86.1412 56.0664 84.3072C56.7056 82.4236 57.8013 80.8127 59.3536 79.4743C60.9515 78.136 63.143 77.0951 65.9279 76.3516C68.7129 75.6081 72.2284 75.2363 76.4743 75.2363C80.7203 75.2363 84.2129 75.6081 86.9522 76.3516C89.7372 77.0951 91.9058 78.136 93.4581 79.4743C95.056 80.8127 96.1518 82.4236 96.7453 84.3072C97.3844 86.1412 97.704 88.1983 97.704 90.4784V115.832ZM70.7217 113.156C70.7217 114.147 71.0642 114.99 71.749 115.684C72.4338 116.328 74.0089 116.65 76.4743 116.65C78.9397 116.65 80.5148 116.328 81.1996 115.684C81.8845 114.99 82.2269 114.147 82.2269 113.156V93.155C82.2269 92.2133 81.8845 91.4202 81.1996 90.7758C80.5148 90.0818 78.9397 89.7349 76.4743 89.7349C74.0089 89.7349 72.4338 90.0818 71.749 90.7758C71.0642 91.4202 70.7217 92.2133 70.7217 93.155V113.156Z" fill="white" fill-opacity="0.5"/>
<path d="M148.402 115.832C148.402 118.112 148.083 120.194 147.444 122.078C146.85 123.912 145.754 125.498 144.156 126.836C142.604 128.125 140.458 129.141 137.719 129.885C134.98 130.628 131.487 131 127.241 131C122.995 131 119.502 130.628 116.763 129.885C114.024 129.141 111.855 128.125 110.257 126.836C108.705 125.498 107.609 123.912 106.97 122.078C106.377 120.194 106.08 118.112 106.08 115.832V79.0282C106.08 78.0865 106.262 77.4173 106.628 77.0207C107.039 76.5746 107.678 76.3516 108.545 76.3516H119.297C120.164 76.3516 120.781 76.5746 121.146 77.0207C121.557 77.4173 121.762 78.0865 121.762 79.0282V112.933C121.762 113.924 122.105 114.767 122.79 115.461C123.474 116.105 125.004 116.427 127.378 116.427C129.798 116.427 131.35 116.105 132.035 115.461C132.72 114.767 133.062 113.924 133.062 112.933V79.0282C133.062 78.0865 133.245 77.4173 133.61 77.0207C134.021 76.5746 134.66 76.3516 135.527 76.3516H145.937C146.804 76.3516 147.421 76.5746 147.786 77.0207C148.197 77.4173 148.402 78.0865 148.402 79.0282V115.832Z" fill="white" fill-opacity="0.5"/>
<path d="M172.994 89.7349V99.2519H178.13C179.317 99.2519 180.116 98.9297 180.527 98.2853C180.938 97.5914 181.144 96.7487 181.144 95.7573V93.2294C181.144 92.238 180.938 91.4202 180.527 90.7758C180.116 90.0818 179.317 89.7349 178.13 89.7349H172.994ZM170.529 129.885H159.982C159.115 129.885 158.476 129.686 158.065 129.29C157.7 128.844 157.517 128.15 157.517 127.208V79.0282C157.517 78.0865 157.7 77.4173 158.065 77.0207C158.476 76.5746 159.115 76.3516 159.982 76.3516H182.787C187.901 76.3516 191.416 77.5164 193.334 79.8461C195.297 82.1262 196.278 85.1003 196.278 88.7683V92.1885C196.278 94.2703 195.982 96.0548 195.388 97.5418C194.84 98.9793 193.859 100.02 192.443 100.665C194.909 100.962 196.895 102.052 198.401 103.936C199.954 105.82 200.73 108.323 200.73 111.446V127.208C200.73 128.15 200.524 128.844 200.113 129.29C199.748 129.686 199.132 129.885 198.264 129.885H187.649C186.782 129.885 186.143 129.686 185.732 129.29C185.367 128.844 185.184 128.15 185.184 127.208V115.832C185.184 114.742 184.979 113.949 184.568 113.453C184.202 112.908 183.54 112.635 182.582 112.635H172.994V127.208C172.994 128.15 172.789 128.844 172.378 129.29C172.012 129.686 171.396 129.885 170.529 129.885Z" fill="white" fill-opacity="0.5"/>
<path d="M236.873 129.885H226.258C225.391 129.885 224.752 129.686 224.341 129.29C223.976 128.844 223.793 128.15 223.793 127.208V79.0282C223.793 78.0865 223.976 77.4173 224.341 77.0207C224.752 76.5746 225.391 76.3516 226.258 76.3516H256.802C257.669 76.3516 258.286 76.5746 258.651 77.0207C259.062 77.4173 259.267 78.0865 259.267 79.0282V87.8761C259.267 88.8179 259.062 89.5118 258.651 89.9579C258.286 90.3545 257.669 90.5527 256.802 90.5527H239.339V98.2853H251.255C252.122 98.2853 252.738 98.5084 253.104 98.9545C253.515 99.351 253.72 100.02 253.72 100.962V109.884C253.72 110.826 253.515 111.52 253.104 111.966C252.738 112.363 252.122 112.561 251.255 112.561H239.339V127.208C239.339 128.15 239.133 128.844 238.722 129.29C238.357 129.686 237.741 129.885 236.873 129.885Z" fill="white" fill-opacity="0.5"/>
<path d="M281.604 89.7349V99.2519H286.74C287.927 99.2519 288.726 98.9297 289.137 98.2853C289.548 97.5914 289.753 96.7487 289.753 95.7573V93.2294C289.753 92.238 289.548 91.4202 289.137 90.7758C288.726 90.0818 287.927 89.7349 286.74 89.7349H281.604ZM279.138 129.885H268.592C267.725 129.885 267.085 129.686 266.674 129.29C266.309 128.844 266.127 128.15 266.127 127.208V79.0282C266.127 78.0865 266.309 77.4173 266.674 77.0207C267.085 76.5746 267.725 76.3516 268.592 76.3516H291.397C296.51 76.3516 300.026 77.5164 301.943 79.8461C303.906 82.1262 304.888 85.1003 304.888 88.7683V92.1885C304.888 94.2703 304.591 96.0548 303.998 97.5418C303.45 98.9793 302.468 100.02 301.053 100.665C303.518 100.962 305.504 102.052 307.011 103.936C308.563 105.82 309.339 108.323 309.339 111.446V127.208C309.339 128.15 309.134 128.844 308.723 129.29C308.358 129.686 307.741 129.885 306.874 129.885H296.259C295.392 129.885 294.752 129.686 294.342 129.29C293.976 128.844 293.794 128.15 293.794 127.208V115.832C293.794 114.742 293.588 113.949 293.177 113.453C292.812 112.908 292.15 112.635 291.191 112.635H281.604V127.208C281.604 128.15 281.398 128.844 280.987 129.29C280.622 129.686 280.006 129.885 279.138 129.885Z" fill="white" fill-opacity="0.5"/>
<path d="M318.39 129.885C317.523 129.885 316.884 129.686 316.473 129.29C316.108 128.844 315.925 128.15 315.925 127.208V118.36C315.925 117.418 316.108 116.749 316.473 116.353C316.884 115.907 317.523 115.684 318.39 115.684H325.17V90.7014H318.39C317.523 90.7014 316.884 90.5032 316.473 90.1066C316.108 89.6605 315.925 88.9666 315.925 88.0248V79.0282C315.925 78.0865 316.108 77.4173 316.473 77.0207C316.884 76.5746 317.523 76.3516 318.39 76.3516H347.564C348.432 76.3516 349.048 76.5746 349.413 77.0207C349.824 77.4173 350.029 78.0865 350.029 79.0282V88.0248C350.029 88.9666 349.824 89.6605 349.413 90.1066C349.048 90.5032 348.432 90.7014 347.564 90.7014H340.921V115.684H347.564C348.432 115.684 349.048 115.907 349.413 116.353C349.824 116.749 350.029 117.418 350.029 118.36V127.208C350.029 128.15 349.824 128.844 349.413 129.29C349.048 129.686 348.432 129.885 347.564 129.885H318.39Z" fill="white" fill-opacity="0.5"/>
<path d="M392.726 129.885H360.95C360.083 129.885 359.444 129.686 359.033 129.29C358.668 128.844 358.485 128.15 358.485 127.208V79.0282C358.485 78.0865 358.668 77.4173 359.033 77.0207C359.444 76.5746 360.083 76.3516 360.95 76.3516H392.726C393.594 76.3516 394.21 76.5746 394.575 77.0207C394.986 77.4173 395.192 78.0865 395.192 79.0282V87.7274C395.192 88.6692 394.986 89.3631 394.575 89.8092C394.21 90.2058 393.594 90.404 392.726 90.404H373.825V96.1291H387.179C388.047 96.1291 388.663 96.3522 389.028 96.7983C389.439 97.1948 389.645 97.864 389.645 98.8058V106.761C389.645 107.703 389.439 108.397 389.028 108.843C388.663 109.24 388.047 109.438 387.179 109.438H373.825V115.832H392.726C393.594 115.832 394.21 116.055 394.575 116.501C394.986 116.898 395.192 117.567 395.192 118.509V127.208C395.192 128.15 394.986 128.844 394.575 129.29C394.21 129.686 393.594 129.885 392.726 129.885Z" fill="white" fill-opacity="0.5"/>
<path d="M416.031 129.885H405.759C404.891 129.885 404.252 129.686 403.841 129.29C403.476 128.844 403.293 128.15 403.293 127.208V79.0282C403.293 78.0865 403.476 77.4173 403.841 77.0207C404.252 76.5746 404.891 76.3516 405.759 76.3516H412.881C413.748 76.3516 414.479 76.5003 415.072 76.7977C415.711 77.0951 416.328 77.6156 416.921 78.3591L430.207 94.8651V79.0282C430.207 78.0865 430.39 77.4173 430.755 77.0207C431.166 76.5746 431.805 76.3516 432.672 76.3516H442.945C443.812 76.3516 444.429 76.5746 444.794 77.0207C445.205 77.4173 445.41 78.0865 445.41 79.0282V127.208C445.41 128.15 445.205 128.844 444.794 129.29C444.429 129.686 443.812 129.885 442.945 129.885H432.672C431.805 129.885 431.166 129.686 430.755 129.29C430.39 128.844 430.207 128.15 430.207 127.208V118.063L418.496 102.672V127.208C418.496 128.15 418.291 128.844 417.88 129.29C417.515 129.686 416.898 129.885 416.031 129.885Z" fill="white" fill-opacity="0.5"/>
<path d="M480.4 129.885H457.321C456.454 129.885 455.815 129.686 455.404 129.29C455.039 128.844 454.856 128.15 454.856 127.208V79.0282C454.856 78.0865 455.039 77.4173 455.404 77.0207C455.815 76.5746 456.454 76.3516 457.321 76.3516H480.4C486.107 76.3516 490.33 77.5908 493.069 80.0692C495.854 82.5476 497.247 86.3643 497.247 91.5193V114.717C497.247 119.872 495.854 123.689 493.069 126.167C490.33 128.646 486.107 129.885 480.4 129.885ZM470.402 90.5527V115.832H478.551C479.647 115.832 480.446 115.535 480.948 114.94C481.496 114.345 481.77 113.428 481.77 112.189V94.1216C481.77 92.8824 481.496 91.9902 480.948 91.445C480.446 90.8501 479.647 90.5527 478.551 90.5527H470.402Z" fill="white" fill-opacity="0.5"/>
<path d="M528.824 129.885H507.183C506.316 129.885 505.677 129.686 505.266 129.29C504.901 128.844 504.718 128.15 504.718 127.208V118.509C504.718 117.567 504.901 116.898 505.266 116.501C505.677 116.055 506.316 115.832 507.183 115.832H525.605C526.199 115.832 526.633 115.634 526.907 115.237C527.226 114.791 527.386 114.271 527.386 113.676C527.386 112.833 527.226 112.214 526.907 111.817C526.633 111.421 526.199 111.198 525.605 111.148L515.333 109.587C512.137 109.091 509.557 107.951 507.594 106.167C505.677 104.382 504.718 101.408 504.718 97.2444V89.4375C504.718 85.2242 505.974 82.0023 508.485 79.7718C510.996 77.4916 514.465 76.3516 518.894 76.3516H538.069C538.937 76.3516 539.553 76.5746 539.918 77.0207C540.329 77.4173 540.535 78.0865 540.535 79.0282V87.8761C540.535 88.8179 540.329 89.5118 539.918 89.9579C539.553 90.3545 538.937 90.5527 538.069 90.5527H522.113C521.519 90.5527 521.063 90.7758 520.743 91.2219C520.423 91.6184 520.264 92.1389 520.264 92.7833C520.264 93.4277 520.423 93.9729 520.743 94.419C521.063 94.8651 521.519 95.113 522.113 95.1625L532.317 96.6496C535.513 97.1452 538.092 98.2853 540.055 100.07C542.018 101.854 543 104.828 543 108.992V116.799C543 121.012 541.722 124.259 539.165 126.539C536.654 128.769 533.207 129.885 528.824 129.885Z" fill="white" fill-opacity="0.5"/>
<path d="M91.7147 55.5331H81.0999C80.2324 55.5331 79.5932 55.3349 79.1823 54.9383C78.8171 54.4922 78.6345 53.7983 78.6345 52.8565V4.67666C78.6345 3.73487 78.8171 3.06571 79.1823 2.66916C79.5932 2.22306 80.2324 2 81.0999 2H102.056C108.265 2 112.511 3.33833 114.793 6.01499C117.076 8.69164 118.218 12.1862 118.218 16.4986V26.0156C118.218 30.328 117.076 33.8225 114.793 36.4991C112.511 39.1758 108.265 40.5141 102.056 40.5141H94.1801V52.8565C94.1801 53.7983 93.9747 54.4922 93.5638 54.9383C93.1985 55.3349 92.5822 55.5331 91.7147 55.5331ZM94.0431 15.9037V27.1308H100.207C101.531 27.1308 102.398 26.7591 102.809 26.0156C103.22 25.272 103.425 24.4294 103.425 23.4876V19.547C103.425 18.6052 103.22 17.7625 102.809 17.019C102.398 16.2755 101.531 15.9037 100.207 15.9037H94.0431Z" stroke="black" stroke-width="4"/>
<path d="M162.638 55.5331H127.781C126.913 55.5331 126.274 55.3349 125.863 54.9383C125.498 54.4922 125.315 53.7983 125.315 52.8565V4.67666C125.315 3.73487 125.498 3.06571 125.863 2.66916C126.274 2.22306 126.913 2 127.781 2H138.395C139.263 2 139.879 2.22306 140.245 2.66916C140.655 3.06571 140.861 3.73487 140.861 4.67666V41.4807H150.243V29.4357C150.243 28.4939 150.426 27.8248 150.791 27.4282C151.202 26.9821 151.841 26.7591 152.708 26.7591H162.638C163.506 26.7591 164.122 26.9821 164.487 27.4282C164.898 27.8248 165.104 28.4939 165.104 29.4357V52.8565C165.104 53.7983 164.898 54.4922 164.487 54.9383C164.122 55.3349 163.506 55.5331 162.638 55.5331Z" stroke="black" stroke-width="4"/>
<path d="M190.806 17.6138L187.588 28.9153H198.339L195.121 17.6138C194.938 17.1677 194.733 16.8455 194.504 16.6473C194.322 16.449 194.094 16.3499 193.82 16.3499H192.108C191.834 16.3499 191.582 16.449 191.354 16.6473C191.172 16.8455 190.989 17.1677 190.806 17.6138ZM186.903 52.8565C186.903 53.7983 186.697 54.4922 186.286 54.9383C185.921 55.3349 185.305 55.5331 184.437 55.5331H174.37C173.503 55.5331 172.864 55.3349 172.453 54.9383C172.088 54.4922 171.905 53.7983 171.905 52.8565V33.2277C171.905 31.7406 172.11 30.0305 172.521 28.0974C172.978 26.1643 173.663 23.9089 174.576 21.3314L180.534 4.4536C180.808 3.61095 181.219 2.99135 181.767 2.59481C182.36 2.19827 183.113 2 184.027 2H202.448C203.316 2 204.024 2.19827 204.571 2.59481C205.165 2.99135 205.599 3.61095 205.873 4.4536L211.831 21.3314C212.744 23.9089 213.406 26.1643 213.817 28.0974C214.273 30.0305 214.501 31.7406 214.501 33.2277V52.8565C214.501 53.7983 214.296 54.4922 213.885 54.9383C213.52 55.3349 212.903 55.5331 212.036 55.5331H201.695C200.782 55.5331 200.097 55.3349 199.641 54.9383C199.23 54.4922 199.024 53.7983 199.024 52.8565V42.4473H186.903V52.8565Z" stroke="black" stroke-width="4"/>
<path d="M246.214 55.5331H235.12C234.253 55.5331 233.614 55.3349 233.203 54.9383C232.837 54.4922 232.655 53.7983 232.655 52.8565V43.3395L222.177 28.0974C221.127 26.5608 220.419 25.2225 220.054 24.0824C219.734 22.9424 219.575 21.2323 219.575 18.9522V4.67666C219.575 3.73487 219.757 3.06571 220.122 2.66916C220.533 2.22306 221.172 2 222.04 2H232.586C233.454 2 234.07 2.22306 234.435 2.66916C234.846 3.06571 235.052 3.73487 235.052 4.67666V16.8703C235.052 17.366 235.074 17.8865 235.12 18.4317C235.166 18.9769 235.348 19.4974 235.668 19.9931L238.818 25.3464C239.047 25.7925 239.275 26.1147 239.503 26.313C239.777 26.5112 240.097 26.6104 240.462 26.6104H241.147C241.512 26.6104 241.809 26.5112 242.037 26.313C242.311 26.1147 242.562 25.7925 242.79 25.3464L245.94 19.9931C246.26 19.4974 246.443 18.9769 246.488 18.4317C246.534 17.8865 246.557 17.366 246.557 16.8703V4.67666C246.557 3.73487 246.739 3.06571 247.105 2.66916C247.516 2.22306 248.155 2 249.022 2H259.226C260.094 2 260.71 2.22306 261.075 2.66916C261.486 3.06571 261.692 3.73487 261.692 4.67666V18.9522C261.692 21.2323 261.509 22.9424 261.144 24.0824C260.778 25.2225 260.094 26.5608 259.089 28.0974L248.68 43.4138V52.8565C248.68 53.7983 248.474 54.4922 248.063 54.9383C247.698 55.3349 247.082 55.5331 246.214 55.5331Z" stroke="black" stroke-width="4"/>
<path d="M319.623 2H329.827C330.694 2 331.311 2.22306 331.676 2.66916C332.087 3.06571 332.292 3.73487 332.292 4.67666V33.5251C332.292 35.1112 332.224 36.5983 332.087 37.9862C331.995 39.3245 331.653 40.9107 331.059 42.7447L327.635 52.8565C327.407 53.6 327.065 54.2444 326.608 54.7896C326.197 55.2853 325.626 55.5331 324.896 55.5331H315.788C315.057 55.5331 314.395 55.3596 313.802 55.0127C313.208 54.6657 312.82 54.0957 312.638 53.3026L309.487 41.1833C309.35 40.6876 309.168 40.3654 308.939 40.2167C308.757 40.0184 308.529 39.9193 308.255 39.9193H307.638C307.364 39.9193 307.113 40.0184 306.885 40.2167C306.702 40.3654 306.543 40.6876 306.406 41.1833L303.187 53.3026C303.004 54.0461 302.662 54.6161 302.16 55.0127C301.657 55.3596 301.041 55.5331 300.311 55.5331H291.271C290.54 55.5331 289.901 55.2853 289.353 54.7896C288.851 54.2939 288.486 53.6496 288.258 52.8565L284.833 42.596C284.24 40.762 283.875 39.1758 283.738 37.8375C283.646 36.4496 283.601 34.9625 283.601 33.3764V4.67666C283.601 3.73487 283.783 3.06571 284.149 2.66916C284.56 2.22306 285.199 2 286.066 2H296.613C297.48 2 298.096 2.22306 298.462 2.66916C298.872 3.06571 299.078 3.73487 299.078 4.67666V32.038L303.05 22.6697C303.415 21.8271 303.895 21.2323 304.488 20.8853C305.082 20.5383 305.812 20.3648 306.68 20.3648H309.556C310.423 20.3648 311.154 20.5383 311.747 20.8853C312.341 21.2323 312.82 21.8271 313.185 22.6697L317.157 32.038V4.67666C317.157 3.73487 317.34 3.06571 317.705 2.66916C318.116 2.22306 318.755 2 319.623 2Z" stroke="black" stroke-width="4"/>
<path d="M342.5 55.5331C341.632 55.5331 340.993 55.3349 340.582 54.9383C340.217 54.4922 340.034 53.7983 340.034 52.8565V44.0086C340.034 43.0669 340.217 42.3977 340.582 42.0012C340.993 41.555 341.632 41.332 342.5 41.332H349.28V16.3499H342.5C341.632 16.3499 340.993 16.1516 340.582 15.755C340.217 15.3089 340.034 14.615 340.034 13.6732V4.67666C340.034 3.73487 340.217 3.06571 340.582 2.66916C340.993 2.22306 341.632 2 342.5 2H371.674C372.541 2 373.157 2.22306 373.523 2.66916C373.934 3.06571 374.139 3.73487 374.139 4.67666V13.6732C374.139 14.615 373.934 15.3089 373.523 15.755C373.157 16.1516 372.541 16.3499 371.674 16.3499H365.031V41.332H371.674C372.541 41.332 373.157 41.555 373.523 42.0012C373.934 42.3977 374.139 43.0669 374.139 44.0086V52.8565C374.139 53.7983 373.934 54.4922 373.523 54.9383C373.157 55.3349 372.541 55.5331 371.674 55.5331H342.5Z" stroke="black" stroke-width="4"/>
<path d="M405.879 55.5331H394.784C393.917 55.5331 393.278 55.3349 392.867 54.9383C392.502 54.4922 392.319 53.7983 392.319 52.8565V16.3499H382.252C381.385 16.3499 380.745 16.1516 380.335 15.755C379.969 15.3089 379.787 14.615 379.787 13.6732V4.67666C379.787 3.73487 379.969 3.06571 380.335 2.66916C380.745 2.22306 381.385 2 382.252 2H418.411C419.278 2 419.895 2.22306 420.26 2.66916C420.671 3.06571 420.876 3.73487 420.876 4.67666V13.6732C420.876 14.615 420.671 15.3089 420.26 15.755C419.895 16.1516 419.278 16.3499 418.411 16.3499H408.344V52.8565C408.344 53.7983 408.139 54.4922 407.728 54.9383C407.362 55.3349 406.746 55.5331 405.879 55.5331Z" stroke="black" stroke-width="4"/>
<path d="M440.617 55.5331H430.002C429.134 55.5331 428.495 55.3349 428.084 54.9383C427.719 54.4922 427.536 53.7983 427.536 52.8565V4.67666C427.536 3.73487 427.719 3.06571 428.084 2.66916C428.495 2.22306 429.134 2 430.002 2H440.617C441.484 2 442.1 2.22306 442.466 2.66916C442.877 3.06571 443.082 3.73487 443.082 4.67666V20.811H454.519V4.67666C454.519 3.73487 454.701 3.06571 455.067 2.66916C455.477 2.22306 456.117 2 456.984 2H467.599C468.466 2 469.083 2.22306 469.448 2.66916C469.859 3.06571 470.064 3.73487 470.064 4.67666V52.8565C470.064 53.7983 469.859 54.4922 469.448 54.9383C469.083 55.3349 468.466 55.5331 467.599 55.5331H456.984C456.117 55.5331 455.477 55.3349 455.067 54.9383C454.701 54.4922 454.519 53.7983 454.519 52.8565V36.3504H443.082V52.8565C443.082 53.7983 442.877 54.4922 442.466 54.9383C442.1 55.3349 441.484 55.5331 440.617 55.5331Z" stroke="black" stroke-width="4"/>
<path d="M32.6399 129.885H21.5456C20.6782 129.885 20.039 129.686 19.6281 129.29C19.2629 128.844 19.0802 128.15 19.0802 127.208V117.691L8.60235 102.449C7.55228 100.912 6.84462 99.5741 6.47938 98.434C6.15979 97.2939 6 95.5839 6 93.3037V79.0282C6 78.0865 6.18262 77.4173 6.54786 77.0207C6.95876 76.5746 7.59794 76.3516 8.46539 76.3516H19.0118C19.8792 76.3516 20.4956 76.5746 20.8608 77.0207C21.2717 77.4173 21.4771 78.0865 21.4771 79.0282V91.2219C21.4771 91.7176 21.5 92.238 21.5456 92.7833C21.5913 93.3285 21.7739 93.849 22.0935 94.3447L25.2437 99.698C25.472 100.144 25.7003 100.466 25.9285 100.665C26.2025 100.863 26.5221 100.962 26.8873 100.962H27.5721C27.9374 100.962 28.2341 100.863 28.4624 100.665C28.7363 100.466 28.9874 100.144 29.2157 99.698L32.3659 94.3447C32.6855 93.849 32.8681 93.3285 32.9138 92.7833C32.9595 92.238 32.9823 91.7176 32.9823 91.2219V79.0282C32.9823 78.0865 33.1649 77.4173 33.5301 77.0207C33.941 76.5746 34.5802 76.3516 35.4477 76.3516H45.6516C46.5191 76.3516 47.1354 76.5746 47.5007 77.0207C47.9116 77.4173 48.117 78.0865 48.117 79.0282V93.3037C48.117 95.5839 47.9344 97.2939 47.5692 98.434C47.2039 99.5741 46.5191 100.912 45.5147 102.449L35.1053 117.765V127.208C35.1053 128.15 34.8998 128.844 34.4889 129.29C34.1237 129.686 33.5073 129.885 32.6399 129.885Z" stroke="black" stroke-width="4"/>
<path d="M97.704 115.832C97.704 118.112 97.3844 120.194 96.7453 122.078C96.1518 123.912 95.056 125.498 93.4581 126.836C91.9058 128.125 89.7372 129.141 86.9522 129.885C84.2129 130.628 80.7203 131 76.4743 131C72.2284 131 68.7129 130.628 65.9279 129.885C63.143 129.141 60.9515 128.125 59.3536 126.836C57.8013 125.498 56.7056 123.912 56.0664 122.078C55.4729 120.194 55.1761 118.112 55.1761 115.832V90.4784C55.1761 88.1983 55.4729 86.1412 56.0664 84.3072C56.7056 82.4236 57.8013 80.8127 59.3536 79.4743C60.9515 78.136 63.143 77.0951 65.9279 76.3516C68.7129 75.6081 72.2284 75.2363 76.4743 75.2363C80.7203 75.2363 84.2129 75.6081 86.9522 76.3516C89.7372 77.0951 91.9058 78.136 93.4581 79.4743C95.056 80.8127 96.1518 82.4236 96.7453 84.3072C97.3844 86.1412 97.704 88.1983 97.704 90.4784V115.832ZM70.7217 113.156C70.7217 114.147 71.0642 114.99 71.749 115.684C72.4338 116.328 74.0089 116.65 76.4743 116.65C78.9397 116.65 80.5148 116.328 81.1996 115.684C81.8845 114.99 82.2269 114.147 82.2269 113.156V93.155C82.2269 92.2133 81.8845 91.4202 81.1996 90.7758C80.5148 90.0818 78.9397 89.7349 76.4743 89.7349C74.0089 89.7349 72.4338 90.0818 71.749 90.7758C71.0642 91.4202 70.7217 92.2133 70.7217 93.155V113.156Z" stroke="black" stroke-width="4"/>
<path d="M148.402 115.832C148.402 118.112 148.083 120.194 147.444 122.078C146.85 123.912 145.754 125.498 144.156 126.836C142.604 128.125 140.458 129.141 137.719 129.885C134.98 130.628 131.487 131 127.241 131C122.995 131 119.502 130.628 116.763 129.885C114.024 129.141 111.855 128.125 110.257 126.836C108.705 125.498 107.609 123.912 106.97 122.078C106.377 120.194 106.08 118.112 106.08 115.832V79.0282C106.08 78.0865 106.262 77.4173 106.628 77.0207C107.039 76.5746 107.678 76.3516 108.545 76.3516H119.297C120.164 76.3516 120.781 76.5746 121.146 77.0207C121.557 77.4173 121.762 78.0865 121.762 79.0282V112.933C121.762 113.924 122.105 114.767 122.79 115.461C123.474 116.105 125.004 116.427 127.378 116.427C129.798 116.427 131.35 116.105 132.035 115.461C132.72 114.767 133.062 113.924 133.062 112.933V79.0282C133.062 78.0865 133.245 77.4173 133.61 77.0207C134.021 76.5746 134.66 76.3516 135.527 76.3516H145.937C146.804 76.3516 147.421 76.5746 147.786 77.0207C148.197 77.4173 148.402 78.0865 148.402 79.0282V115.832Z" stroke="black" stroke-width="4"/>
<path d="M172.994 89.7349V99.2519H178.13C179.317 99.2519 180.116 98.9297 180.527 98.2853C180.938 97.5914 181.144 96.7487 181.144 95.7573V93.2294C181.144 92.238 180.938 91.4202 180.527 90.7758C180.116 90.0818 179.317 89.7349 178.13 89.7349H172.994ZM170.529 129.885H159.982C159.115 129.885 158.476 129.686 158.065 129.29C157.7 128.844 157.517 128.15 157.517 127.208V79.0282C157.517 78.0865 157.7 77.4173 158.065 77.0207C158.476 76.5746 159.115 76.3516 159.982 76.3516H182.787C187.901 76.3516 191.416 77.5164 193.334 79.8461C195.297 82.1262 196.278 85.1003 196.278 88.7683V92.1885C196.278 94.2703 195.982 96.0548 195.388 97.5418C194.84 98.9793 193.859 100.02 192.443 100.665C194.909 100.962 196.895 102.052 198.401 103.936C199.954 105.82 200.73 108.323 200.73 111.446V127.208C200.73 128.15 200.524 128.844 200.113 129.29C199.748 129.686 199.132 129.885 198.264 129.885H187.649C186.782 129.885 186.143 129.686 185.732 129.29C185.367 128.844 185.184 128.15 185.184 127.208V115.832C185.184 114.742 184.979 113.949 184.568 113.453C184.202 112.908 183.54 112.635 182.582 112.635H172.994V127.208C172.994 128.15 172.789 128.844 172.378 129.29C172.012 129.686 171.396 129.885 170.529 129.885Z" stroke="black" stroke-width="4"/>
<path d="M236.873 129.885H226.258C225.391 129.885 224.752 129.686 224.341 129.29C223.976 128.844 223.793 128.15 223.793 127.208V79.0282C223.793 78.0865 223.976 77.4173 224.341 77.0207C224.752 76.5746 225.391 76.3516 226.258 76.3516H256.802C257.669 76.3516 258.286 76.5746 258.651 77.0207C259.062 77.4173 259.267 78.0865 259.267 79.0282V87.8761C259.267 88.8179 259.062 89.5118 258.651 89.9579C258.286 90.3545 257.669 90.5527 256.802 90.5527H239.339V98.2853H251.255C252.122 98.2853 252.738 98.5084 253.104 98.9545C253.515 99.351 253.72 100.02 253.72 100.962V109.884C253.72 110.826 253.515 111.52 253.104 111.966C252.738 112.363 252.122 112.561 251.255 112.561H239.339V127.208C239.339 128.15 239.133 128.844 238.722 129.29C238.357 129.686 237.741 129.885 236.873 129.885Z" stroke="black" stroke-width="4"/>
<path d="M281.604 89.7349V99.2519H286.74C287.927 99.2519 288.726 98.9297 289.137 98.2853C289.548 97.5914 289.753 96.7487 289.753 95.7573V93.2294C289.753 92.238 289.548 91.4202 289.137 90.7758C288.726 90.0818 287.927 89.7349 286.74 89.7349H281.604ZM279.138 129.885H268.592C267.725 129.885 267.085 129.686 266.674 129.29C266.309 128.844 266.127 128.15 266.127 127.208V79.0282C266.127 78.0865 266.309 77.4173 266.674 77.0207C267.085 76.5746 267.725 76.3516 268.592 76.3516H291.397C296.51 76.3516 300.026 77.5164 301.943 79.8461C303.906 82.1262 304.888 85.1003 304.888 88.7683V92.1885C304.888 94.2703 304.591 96.0548 303.998 97.5418C303.45 98.9793 302.468 100.02 301.053 100.665C303.518 100.962 305.504 102.052 307.011 103.936C308.563 105.82 309.339 108.323 309.339 111.446V127.208C309.339 128.15 309.134 128.844 308.723 129.29C308.358 129.686 307.741 129.885 306.874 129.885H296.259C295.392 129.885 294.752 129.686 294.342 129.29C293.976 128.844 293.794 128.15 293.794 127.208V115.832C293.794 114.742 293.588 113.949 293.177 113.453C292.812 112.908 292.15 112.635 291.191 112.635H281.604V127.208C281.604 128.15 281.398 128.844 280.987 129.29C280.622 129.686 280.006 129.885 279.138 129.885Z" stroke="black" stroke-width="4"/>
<path d="M318.39 129.885C317.523 129.885 316.884 129.686 316.473 129.29C316.108 128.844 315.925 128.15 315.925 127.208V118.36C315.925 117.418 316.108 116.749 316.473 116.353C316.884 115.907 317.523 115.684 318.39 115.684H325.17V90.7014H318.39C317.523 90.7014 316.884 90.5032 316.473 90.1066C316.108 89.6605 315.925 88.9666 315.925 88.0248V79.0282C315.925 78.0865 316.108 77.4173 316.473 77.0207C316.884 76.5746 317.523 76.3516 318.39 76.3516H347.564C348.432 76.3516 349.048 76.5746 349.413 77.0207C349.824 77.4173 350.029 78.0865 350.029 79.0282V88.0248C350.029 88.9666 349.824 89.6605 349.413 90.1066C349.048 90.5032 348.432 90.7014 347.564 90.7014H340.921V115.684H347.564C348.432 115.684 349.048 115.907 349.413 116.353C349.824 116.749 350.029 117.418 350.029 118.36V127.208C350.029 128.15 349.824 128.844 349.413 129.29C349.048 129.686 348.432 129.885 347.564 129.885H318.39Z" stroke="black" stroke-width="4"/>
<path d="M392.726 129.885H360.95C360.083 129.885 359.444 129.686 359.033 129.29C358.668 128.844 358.485 128.15 358.485 127.208V79.0282C358.485 78.0865 358.668 77.4173 359.033 77.0207C359.444 76.5746 360.083 76.3516 360.95 76.3516H392.726C393.594 76.3516 394.21 76.5746 394.575 77.0207C394.986 77.4173 395.192 78.0865 395.192 79.0282V87.7274C395.192 88.6692 394.986 89.3631 394.575 89.8092C394.21 90.2058 393.594 90.404 392.726 90.404H373.825V96.1291H387.179C388.047 96.1291 388.663 96.3522 389.028 96.7983C389.439 97.1948 389.645 97.864 389.645 98.8058V106.761C389.645 107.703 389.439 108.397 389.028 108.843C388.663 109.24 388.047 109.438 387.179 109.438H373.825V115.832H392.726C393.594 115.832 394.21 116.055 394.575 116.501C394.986 116.898 395.192 117.567 395.192 118.509V127.208C395.192 128.15 394.986 128.844 394.575 129.29C394.21 129.686 393.594 129.885 392.726 129.885Z" stroke="black" stroke-width="4"/>
<path d="M416.031 129.885H405.759C404.891 129.885 404.252 129.686 403.841 129.29C403.476 128.844 403.293 128.15 403.293 127.208V79.0282C403.293 78.0865 403.476 77.4173 403.841 77.0207C404.252 76.5746 404.891 76.3516 405.759 76.3516H412.881C413.748 76.3516 414.479 76.5003 415.072 76.7977C415.711 77.0951 416.328 77.6156 416.921 78.3591L430.207 94.8651V79.0282C430.207 78.0865 430.39 77.4173 430.755 77.0207C431.166 76.5746 431.805 76.3516 432.672 76.3516H442.945C443.812 76.3516 444.429 76.5746 444.794 77.0207C445.205 77.4173 445.41 78.0865 445.41 79.0282V127.208C445.41 128.15 445.205 128.844 444.794 129.29C444.429 129.686 443.812 129.885 442.945 129.885H432.672C431.805 129.885 431.166 129.686 430.755 129.29C430.39 128.844 430.207 128.15 430.207 127.208V118.063L418.496 102.672V127.208C418.496 128.15 418.291 128.844 417.88 129.29C417.515 129.686 416.898 129.885 416.031 129.885Z" stroke="black" stroke-width="4"/>
<path d="M480.4 129.885H457.321C456.454 129.885 455.815 129.686 455.404 129.29C455.039 128.844 454.856 128.15 454.856 127.208V79.0282C454.856 78.0865 455.039 77.4173 455.404 77.0207C455.815 76.5746 456.454 76.3516 457.321 76.3516H480.4C486.107 76.3516 490.33 77.5908 493.069 80.0692C495.854 82.5476 497.247 86.3643 497.247 91.5193V114.717C497.247 119.872 495.854 123.689 493.069 126.167C490.33 128.646 486.107 129.885 480.4 129.885ZM470.402 90.5527V115.832H478.551C479.647 115.832 480.446 115.535 480.948 114.94C481.496 114.345 481.77 113.428 481.77 112.189V94.1216C481.77 92.8824 481.496 91.9902 480.948 91.445C480.446 90.8501 479.647 90.5527 478.551 90.5527H470.402Z" stroke="black" stroke-width="4"/>
<path d="M528.824 129.885H507.183C506.316 129.885 505.677 129.686 505.266 129.29C504.901 128.844 504.718 128.15 504.718 127.208V118.509C504.718 117.567 504.901 116.898 505.266 116.501C505.677 116.055 506.316 115.832 507.183 115.832H525.605C526.199 115.832 526.633 115.634 526.907 115.237C527.226 114.791 527.386 114.271 527.386 113.676C527.386 112.833 527.226 112.214 526.907 111.817C526.633 111.421 526.199 111.198 525.605 111.148L515.333 109.587C512.137 109.091 509.557 107.951 507.594 106.167C505.677 104.382 504.718 101.408 504.718 97.2444V89.4375C504.718 85.2242 505.974 82.0023 508.485 79.7718C510.996 77.4916 514.465 76.3516 518.894 76.3516H538.069C538.937 76.3516 539.553 76.5746 539.918 77.0207C540.329 77.4173 540.535 78.0865 540.535 79.0282V87.8761C540.535 88.8179 540.329 89.5118 539.918 89.9579C539.553 90.3545 538.937 90.5527 538.069 90.5527H522.113C521.519 90.5527 521.063 90.7758 520.743 91.2219C520.423 91.6184 520.264 92.1389 520.264 92.7833C520.264 93.4277 520.423 93.9729 520.743 94.419C521.063 94.8651 521.519 95.113 522.113 95.1625L532.317 96.6496C535.513 97.1452 538.092 98.2853 540.055 100.07C542.018 101.854 543 104.828 543 108.992V116.799C543 121.012 541.722 124.259 539.165 126.539C536.654 128.769 533.207 129.885 528.824 129.885Z" stroke="black" stroke-width="4"/>
</g>
<defs>
<filter id="filter0_d" x="0" y="0" width="549" height="141" filterUnits="userSpaceOnUse" color-interpolation-filters="sRGB">
<feFlood flood-opacity="0" result="BackgroundImageFix"/>
<feColorMatrix in="SourceAlpha" type="matrix" values="0 0 0 0 0 0 0 0 0 0 0 0 0 0 0 0 0 0 127 0"/>
<feOffset dy="4"/>
<feGaussianBlur stdDeviation="2"/>
<feColorMatrix type="matrix" values="0 0 0 0 0 0 0 0 0 0 0 0 0 0 0 0 0 0 0.25 0"/>
<feBlend mode="normal" in2="BackgroundImageFix" result="effect1_dropShadow"/>
<feBlend mode="normal" in="SourceGraphic" in2="effect1_dropShadow" result="shape"/>
</filter>
</defs>
</svg>
