<svg width="565" height="125" viewBox="0 0 565 125" fill="none" xmlns="http://www.w3.org/2000/svg">
<g clip-path="url(#clip0)">
<mask id="path-2-inside-1" fill="white">
<path d="M90.4934 52H79.3334C78.4214 52 77.7494 51.808 77.3174 51.424C76.9334 50.992 76.7414 50.32 76.7414 49.408V2.752C76.7414 1.84 76.9334 1.192 77.3174 0.807999C77.7494 0.375998 78.4214 0.159998 79.3334 0.159998H101.365C107.893 0.159998 112.357 1.456 114.757 4.048C117.157 6.64 118.357 10.024 118.357 14.2V23.416C118.357 27.592 117.157 30.976 114.757 33.568C112.357 36.16 107.893 37.456 101.365 37.456H93.0854V49.408C93.0854 50.32 92.8694 50.992 92.4374 51.424C92.0534 51.808 91.4054 52 90.4934 52ZM92.9414 13.624V24.496H99.4214C100.813 24.496 101.725 24.136 102.157 23.416C102.589 22.696 102.805 21.88 102.805 20.968V17.152C102.805 16.24 102.589 15.424 102.157 14.704C101.725 13.984 100.813 13.624 99.4214 13.624H92.9414Z"/>
<path d="M165.06 52H128.412C127.5 52 126.828 51.808 126.396 51.424C126.012 50.992 125.82 50.32 125.82 49.408V2.752C125.82 1.84 126.012 1.192 126.396 0.807999C126.828 0.375998 127.5 0.159998 128.412 0.159998H139.572C140.484 0.159998 141.132 0.375998 141.516 0.807999C141.948 1.192 142.164 1.84 142.164 2.752V38.392H152.028V26.728C152.028 25.816 152.22 25.168 152.604 24.784C153.036 24.352 153.708 24.136 154.62 24.136H165.06C165.972 24.136 166.62 24.352 167.004 24.784C167.436 25.168 167.652 25.816 167.652 26.728V49.408C167.652 50.32 167.436 50.992 167.004 51.424C166.62 51.808 165.972 52 165.06 52Z"/>
<path d="M194.674 15.28L191.29 26.224H202.594L199.21 15.28C199.018 14.848 198.802 14.536 198.562 14.344C198.37 14.152 198.13 14.056 197.842 14.056H196.042C195.754 14.056 195.49 14.152 195.25 14.344C195.058 14.536 194.866 14.848 194.674 15.28ZM190.57 49.408C190.57 50.32 190.354 50.992 189.922 51.424C189.538 51.808 188.89 52 187.978 52H177.394C176.482 52 175.81 51.808 175.378 51.424C174.994 50.992 174.802 50.32 174.802 49.408V30.4C174.802 28.96 175.018 27.304 175.45 25.432C175.93 23.56 176.65 21.376 177.61 18.88L183.874 2.536C184.162 1.72 184.594 1.12 185.17 0.735999C185.794 0.351998 186.586 0.159998 187.546 0.159998H206.914C207.826 0.159998 208.57 0.351998 209.146 0.735999C209.77 1.12 210.226 1.72 210.514 2.536L216.778 18.88C217.738 21.376 218.434 23.56 218.866 25.432C219.346 27.304 219.586 28.96 219.586 30.4V49.408C219.586 50.32 219.37 50.992 218.938 51.424C218.554 51.808 217.906 52 216.994 52H206.122C205.162 52 204.442 51.808 203.962 51.424C203.53 50.992 203.314 50.32 203.314 49.408V39.328H190.57V49.408Z"/>
<path d="M252.928 52H241.264C240.352 52 239.68 51.808 239.248 51.424C238.864 50.992 238.672 50.32 238.672 49.408V40.192L227.656 25.432C226.552 23.944 225.808 22.648 225.424 21.544C225.088 20.44 224.92 18.784 224.92 16.576V2.752C224.92 1.84 225.112 1.192 225.496 0.807999C225.928 0.375998 226.6 0.159998 227.512 0.159998H238.6C239.512 0.159998 240.16 0.375998 240.544 0.807999C240.976 1.192 241.192 1.84 241.192 2.752V14.56C241.192 15.04 241.216 15.544 241.264 16.072C241.312 16.6 241.504 17.104 241.84 17.584L245.152 22.768C245.392 23.2 245.632 23.512 245.872 23.704C246.16 23.896 246.496 23.992 246.88 23.992H247.6C247.984 23.992 248.296 23.896 248.536 23.704C248.824 23.512 249.088 23.2 249.328 22.768L252.64 17.584C252.976 17.104 253.168 16.6 253.216 16.072C253.264 15.544 253.288 15.04 253.288 14.56V2.752C253.288 1.84 253.48 1.192 253.864 0.807999C254.296 0.375998 254.968 0.159998 255.88 0.159998H266.608C267.52 0.159998 268.168 0.375998 268.552 0.807999C268.984 1.192 269.2 1.84 269.2 2.752V16.576C269.2 18.784 269.008 20.44 268.624 21.544C268.24 22.648 267.52 23.944 266.464 25.432L255.52 40.264V49.408C255.52 50.32 255.304 50.992 254.872 51.424C254.488 51.808 253.84 52 252.928 52Z"/>
<path d="M330.106 0.159998H340.834C341.746 0.159998 342.394 0.375998 342.778 0.807999C343.21 1.192 343.426 1.84 343.426 2.752V30.688C343.426 32.224 343.354 33.664 343.21 35.008C343.114 36.304 342.754 37.84 342.13 39.616L338.53 49.408C338.29 50.128 337.93 50.752 337.45 51.28C337.018 51.76 336.418 52 335.65 52H326.074C325.306 52 324.61 51.832 323.986 51.496C323.362 51.16 322.954 50.608 322.762 49.84L319.45 38.104C319.306 37.624 319.114 37.312 318.874 37.168C318.682 36.976 318.442 36.88 318.154 36.88H317.506C317.218 36.88 316.954 36.976 316.714 37.168C316.522 37.312 316.354 37.624 316.21 38.104L312.826 49.84C312.634 50.56 312.274 51.112 311.746 51.496C311.218 51.832 310.57 52 309.802 52H300.298C299.53 52 298.858 51.76 298.282 51.28C297.754 50.8 297.37 50.176 297.13 49.408L293.53 39.472C292.906 37.696 292.522 36.16 292.378 34.864C292.282 33.52 292.234 32.08 292.234 30.544V2.752C292.234 1.84 292.426 1.192 292.81 0.807999C293.242 0.375998 293.914 0.159998 294.826 0.159998H305.914C306.826 0.159998 307.474 0.375998 307.858 0.807999C308.29 1.192 308.506 1.84 308.506 2.752V29.248L312.682 20.176C313.066 19.36 313.57 18.784 314.194 18.448C314.818 18.112 315.586 17.944 316.498 17.944H319.522C320.434 17.944 321.202 18.112 321.826 18.448C322.45 18.784 322.954 19.36 323.338 20.176L327.514 29.248V2.752C327.514 1.84 327.706 1.192 328.09 0.807999C328.522 0.375998 329.194 0.159998 330.106 0.159998Z"/>
<path d="M354.158 52C353.246 52 352.574 51.808 352.142 51.424C351.758 50.992 351.566 50.32 351.566 49.408V40.84C351.566 39.928 351.758 39.28 352.142 38.896C352.574 38.464 353.246 38.248 354.158 38.248H361.286V14.056H354.158C353.246 14.056 352.574 13.864 352.142 13.48C351.758 13.048 351.566 12.376 351.566 11.464V2.752C351.566 1.84 351.758 1.192 352.142 0.807999C352.574 0.375998 353.246 0.159998 354.158 0.159998H384.83C385.742 0.159998 386.39 0.375998 386.774 0.807999C387.206 1.192 387.422 1.84 387.422 2.752V11.464C387.422 12.376 387.206 13.048 386.774 13.48C386.39 13.864 385.742 14.056 384.83 14.056H377.846V38.248H384.83C385.742 38.248 386.39 38.464 386.774 38.896C387.206 39.28 387.422 39.928 387.422 40.84V49.408C387.422 50.32 387.206 50.992 386.774 51.424C386.39 51.808 385.742 52 384.83 52H354.158Z"/>
<path d="M420.792 52H409.128C408.216 52 407.544 51.808 407.112 51.424C406.728 50.992 406.536 50.32 406.536 49.408V14.056H395.952C395.04 14.056 394.368 13.864 393.936 13.48C393.552 13.048 393.36 12.376 393.36 11.464V2.752C393.36 1.84 393.552 1.192 393.936 0.807999C394.368 0.375998 395.04 0.159998 395.952 0.159998H433.968C434.88 0.159998 435.528 0.375998 435.912 0.807999C436.344 1.192 436.56 1.84 436.56 2.752V11.464C436.56 12.376 436.344 13.048 435.912 13.48C435.528 13.864 434.88 14.056 433.968 14.056H423.384V49.408C423.384 50.32 423.168 50.992 422.736 51.424C422.352 51.808 421.704 52 420.792 52Z"/>
<path d="M457.314 52H446.154C445.242 52 444.57 51.808 444.138 51.424C443.754 50.992 443.562 50.32 443.562 49.408V2.752C443.562 1.84 443.754 1.192 444.138 0.807999C444.57 0.375998 445.242 0.159998 446.154 0.159998H457.314C458.226 0.159998 458.874 0.375998 459.258 0.807999C459.69 1.192 459.906 1.84 459.906 2.752V18.376H471.93V2.752C471.93 1.84 472.122 1.192 472.506 0.807999C472.938 0.375998 473.61 0.159998 474.522 0.159998H485.682C486.594 0.159998 487.242 0.375998 487.626 0.807999C488.058 1.192 488.274 1.84 488.274 2.752V49.408C488.274 50.32 488.058 50.992 487.626 51.424C487.242 51.808 486.594 52 485.682 52H474.522C473.61 52 472.938 51.808 472.506 51.424C472.122 50.992 471.93 50.32 471.93 49.408V33.424H459.906V49.408C459.906 50.32 459.69 50.992 459.258 51.424C458.874 51.808 458.226 52 457.314 52Z"/>
<path d="M28.3847 124H16.7207C15.8087 124 15.1367 123.808 14.7047 123.424C14.3207 122.992 14.1287 122.32 14.1287 121.408V112.192L3.11272 97.432C2.00872 95.944 1.26472 94.648 0.880718 93.544C0.544718 92.44 0.376719 90.784 0.376719 88.576V74.752C0.376719 73.84 0.568718 73.192 0.952718 72.808C1.38472 72.376 2.05672 72.16 2.96872 72.16H14.0567C14.9687 72.16 15.6167 72.376 16.0007 72.808C16.4327 73.192 16.6487 73.84 16.6487 74.752V86.56C16.6487 87.04 16.6727 87.544 16.7207 88.072C16.7687 88.6 16.9607 89.104 17.2967 89.584L20.6087 94.768C20.8487 95.2 21.0887 95.512 21.3287 95.704C21.6167 95.896 21.9527 95.992 22.3367 95.992H23.0567C23.4407 95.992 23.7527 95.896 23.9927 95.704C24.2807 95.512 24.5447 95.2 24.7847 94.768L28.0967 89.584C28.4327 89.104 28.6247 88.6 28.6727 88.072C28.7207 87.544 28.7447 87.04 28.7447 86.56V74.752C28.7447 73.84 28.9367 73.192 29.3207 72.808C29.7527 72.376 30.4247 72.16 31.3367 72.16H42.0647C42.9767 72.16 43.6247 72.376 44.0087 72.808C44.4407 73.192 44.6567 73.84 44.6567 74.752V88.576C44.6567 90.784 44.4647 92.44 44.0807 93.544C43.6967 94.648 42.9767 95.944 41.9207 97.432L30.9767 112.264V121.408C30.9767 122.32 30.7607 122.992 30.3287 123.424C29.9447 123.808 29.2967 124 28.3847 124Z"/>
<path d="M96.7903 110.392C96.7903 112.6 96.4544 114.616 95.7824 116.44C95.1583 118.216 94.0063 119.752 92.3263 121.048C90.6943 122.296 88.4143 123.28 85.4863 124C82.6063 124.72 78.9343 125.08 74.4703 125.08C70.0063 125.08 66.3103 124.72 63.3823 124C60.4543 123.28 58.1503 122.296 56.4703 121.048C54.8383 119.752 53.6863 118.216 53.0143 116.44C52.3903 114.616 52.0783 112.6 52.0783 110.392V85.84C52.0783 83.632 52.3903 81.64 53.0143 79.864C53.6863 78.04 54.8383 76.48 56.4703 75.184C58.1503 73.888 60.4543 72.88 63.3823 72.16C66.3103 71.44 70.0063 71.08 74.4703 71.08C78.9343 71.08 82.6063 71.44 85.4863 72.16C88.4143 72.88 90.6943 73.888 92.3263 75.184C94.0063 76.48 95.1583 78.04 95.7824 79.864C96.4544 81.64 96.7903 83.632 96.7903 85.84V110.392ZM68.4223 107.8C68.4223 108.76 68.7823 109.576 69.5023 110.248C70.2223 110.872 71.8783 111.184 74.4703 111.184C77.0623 111.184 78.7183 110.872 79.4383 110.248C80.1583 109.576 80.5183 108.76 80.5183 107.8V88.432C80.5183 87.52 80.1583 86.752 79.4383 86.128C78.7183 85.456 77.0623 85.12 74.4703 85.12C71.8783 85.12 70.2223 85.456 69.5023 86.128C68.7823 86.752 68.4223 87.52 68.4223 88.432V107.8Z"/>
<path d="M150.092 110.392C150.092 112.6 149.756 114.616 149.084 116.44C148.46 118.216 147.308 119.752 145.628 121.048C143.996 122.296 141.74 123.28 138.86 124C135.98 124.72 132.308 125.08 127.844 125.08C123.38 125.08 119.708 124.72 116.828 124C113.948 123.28 111.668 122.296 109.988 121.048C108.356 119.752 107.204 118.216 106.532 116.44C105.908 114.616 105.596 112.6 105.596 110.392V74.752C105.596 73.84 105.788 73.192 106.172 72.808C106.604 72.376 107.276 72.16 108.188 72.16H119.492C120.404 72.16 121.052 72.376 121.436 72.808C121.868 73.192 122.084 73.84 122.084 74.752V107.584C122.084 108.544 122.444 109.36 123.164 110.032C123.884 110.656 125.492 110.968 127.988 110.968C130.532 110.968 132.164 110.656 132.884 110.032C133.604 109.36 133.964 108.544 133.964 107.584V74.752C133.964 73.84 134.156 73.192 134.54 72.808C134.972 72.376 135.644 72.16 136.556 72.16H147.5C148.412 72.16 149.06 72.376 149.444 72.808C149.876 73.192 150.092 73.84 150.092 74.752V110.392Z"/>
<path d="M175.947 85.12V94.336H181.347C182.595 94.336 183.435 94.024 183.867 93.4C184.299 92.728 184.515 91.912 184.515 90.952V88.504C184.515 87.544 184.299 86.752 183.867 86.128C183.435 85.456 182.595 85.12 181.347 85.12H175.947ZM173.355 124H162.267C161.355 124 160.683 123.808 160.251 123.424C159.867 122.992 159.675 122.32 159.675 121.408V74.752C159.675 73.84 159.867 73.192 160.251 72.808C160.683 72.376 161.355 72.16 162.267 72.16H186.243C191.619 72.16 195.315 73.288 197.331 75.544C199.395 77.752 200.427 80.632 200.427 84.184V87.496C200.427 89.512 200.115 91.24 199.491 92.68C198.915 94.072 197.883 95.08 196.395 95.704C198.987 95.992 201.075 97.048 202.659 98.872C204.291 100.696 205.107 103.12 205.107 106.144V121.408C205.107 122.32 204.891 122.992 204.459 123.424C204.075 123.808 203.427 124 202.515 124H191.355C190.443 124 189.771 123.808 189.339 123.424C188.955 122.992 188.763 122.32 188.763 121.408V110.392C188.763 109.336 188.547 108.568 188.115 108.088C187.731 107.56 187.035 107.296 186.027 107.296H175.947V121.408C175.947 122.32 175.731 122.992 175.299 123.424C174.915 123.808 174.267 124 173.355 124Z"/>
<path d="M243.107 124H231.947C231.035 124 230.363 123.808 229.931 123.424C229.547 122.992 229.355 122.32 229.355 121.408V74.752C229.355 73.84 229.547 73.192 229.931 72.808C230.363 72.376 231.035 72.16 231.947 72.16H264.059C264.971 72.16 265.619 72.376 266.003 72.808C266.435 73.192 266.651 73.84 266.651 74.752V83.32C266.651 84.232 266.435 84.904 266.003 85.336C265.619 85.72 264.971 85.912 264.059 85.912H245.699V93.4H258.227C259.139 93.4 259.787 93.616 260.171 94.048C260.603 94.432 260.819 95.08 260.819 95.992V104.632C260.819 105.544 260.603 106.216 260.171 106.648C259.787 107.032 259.139 107.224 258.227 107.224H245.699V121.408C245.699 122.32 245.483 122.992 245.051 123.424C244.667 123.808 244.019 124 243.107 124Z"/>
<path d="M290.135 85.12V94.336H295.535C296.783 94.336 297.623 94.024 298.055 93.4C298.487 92.728 298.703 91.912 298.703 90.952V88.504C298.703 87.544 298.487 86.752 298.055 86.128C297.623 85.456 296.783 85.12 295.535 85.12H290.135ZM287.543 124H276.455C275.543 124 274.871 123.808 274.439 123.424C274.055 122.992 273.863 122.32 273.863 121.408V74.752C273.863 73.84 274.055 73.192 274.439 72.808C274.871 72.376 275.543 72.16 276.455 72.16H300.431C305.807 72.16 309.503 73.288 311.519 75.544C313.583 77.752 314.615 80.632 314.615 84.184V87.496C314.615 89.512 314.303 91.24 313.679 92.68C313.103 94.072 312.071 95.08 310.583 95.704C313.175 95.992 315.263 97.048 316.847 98.872C318.479 100.696 319.295 103.12 319.295 106.144V121.408C319.295 122.32 319.079 122.992 318.647 123.424C318.263 123.808 317.615 124 316.703 124H305.543C304.631 124 303.959 123.808 303.527 123.424C303.143 122.992 302.951 122.32 302.951 121.408V110.392C302.951 109.336 302.735 108.568 302.303 108.088C301.919 107.56 301.223 107.296 300.215 107.296H290.135V121.408C290.135 122.32 289.919 122.992 289.487 123.424C289.103 123.808 288.455 124 287.543 124Z"/>
<path d="M328.81 124C327.898 124 327.226 123.808 326.794 123.424C326.41 122.992 326.218 122.32 326.218 121.408V112.84C326.218 111.928 326.41 111.28 326.794 110.896C327.226 110.464 327.898 110.248 328.81 110.248H335.938V86.056H328.81C327.898 86.056 327.226 85.864 326.794 85.48C326.41 85.048 326.218 84.376 326.218 83.464V74.752C326.218 73.84 326.41 73.192 326.794 72.808C327.226 72.376 327.898 72.16 328.81 72.16H359.482C360.394 72.16 361.042 72.376 361.426 72.808C361.858 73.192 362.074 73.84 362.074 74.752V83.464C362.074 84.376 361.858 85.048 361.426 85.48C361.042 85.864 360.394 86.056 359.482 86.056H352.498V110.248H359.482C360.394 110.248 361.042 110.464 361.426 110.896C361.858 111.28 362.074 111.928 362.074 112.84V121.408C362.074 122.32 361.858 122.992 361.426 123.424C361.042 123.808 360.394 124 359.482 124H328.81Z"/>
<path d="M406.964 124H373.556C372.644 124 371.972 123.808 371.54 123.424C371.156 122.992 370.964 122.32 370.964 121.408V74.752C370.964 73.84 371.156 73.192 371.54 72.808C371.972 72.376 372.644 72.16 373.556 72.16H406.964C407.876 72.16 408.524 72.376 408.908 72.808C409.34 73.192 409.556 73.84 409.556 74.752V83.176C409.556 84.088 409.34 84.76 408.908 85.192C408.524 85.576 407.876 85.768 406.964 85.768H387.092V91.312H401.132C402.044 91.312 402.692 91.528 403.076 91.96C403.508 92.344 403.724 92.992 403.724 93.904V101.608C403.724 102.52 403.508 103.192 403.076 103.624C402.692 104.008 402.044 104.2 401.132 104.2H387.092V110.392H406.964C407.876 110.392 408.524 110.608 408.908 111.04C409.34 111.424 409.556 112.072 409.556 112.984V121.408C409.556 122.32 409.34 122.992 408.908 123.424C408.524 123.808 407.876 124 406.964 124Z"/>
<path d="M431.465 124H420.665C419.753 124 419.081 123.808 418.649 123.424C418.265 122.992 418.073 122.32 418.073 121.408V74.752C418.073 73.84 418.265 73.192 418.649 72.808C419.081 72.376 419.753 72.16 420.665 72.16H428.153C429.065 72.16 429.833 72.304 430.457 72.592C431.129 72.88 431.777 73.384 432.401 74.104L446.369 90.088V74.752C446.369 73.84 446.561 73.192 446.945 72.808C447.377 72.376 448.049 72.16 448.961 72.16H459.761C460.673 72.16 461.321 72.376 461.705 72.808C462.137 73.192 462.353 73.84 462.353 74.752V121.408C462.353 122.32 462.137 122.992 461.705 123.424C461.321 123.808 460.673 124 459.761 124H448.961C448.049 124 447.377 123.808 446.945 123.424C446.561 122.992 446.369 122.32 446.369 121.408V112.552L434.057 97.648V121.408C434.057 122.32 433.841 122.992 433.409 123.424C433.025 123.808 432.377 124 431.465 124Z"/>
<path d="M499.14 124H474.876C473.964 124 473.292 123.808 472.86 123.424C472.476 122.992 472.284 122.32 472.284 121.408V74.752C472.284 73.84 472.476 73.192 472.86 72.808C473.292 72.376 473.964 72.16 474.876 72.16H499.14C505.14 72.16 509.58 73.36 512.46 75.76C515.388 78.16 516.852 81.856 516.852 86.848V109.312C516.852 114.304 515.388 118 512.46 120.4C509.58 122.8 505.14 124 499.14 124ZM488.628 85.912V110.392H497.196C498.348 110.392 499.188 110.104 499.716 109.528C500.292 108.952 500.58 108.064 500.58 106.864V89.368C500.58 88.168 500.292 87.304 499.716 86.776C499.188 86.2 498.348 85.912 497.196 85.912H488.628Z"/>
<path d="M550.051 124H527.299C526.387 124 525.715 123.808 525.283 123.424C524.899 122.992 524.707 122.32 524.707 121.408V112.984C524.707 112.072 524.899 111.424 525.283 111.04C525.715 110.608 526.387 110.392 527.299 110.392H546.667C547.291 110.392 547.747 110.2 548.035 109.816C548.371 109.384 548.539 108.88 548.539 108.304C548.539 107.488 548.371 106.888 548.035 106.504C547.747 106.12 547.291 105.904 546.667 105.856L535.867 104.344C532.507 103.864 529.795 102.76 527.731 101.032C525.715 99.304 524.707 96.424 524.707 92.392V84.832C524.707 80.752 526.027 77.632 528.667 75.472C531.307 73.264 534.955 72.16 539.611 72.16H559.771C560.683 72.16 561.331 72.376 561.715 72.808C562.147 73.192 562.363 73.84 562.363 74.752V83.32C562.363 84.232 562.147 84.904 561.715 85.336C561.331 85.72 560.683 85.912 559.771 85.912H542.995C542.371 85.912 541.891 86.128 541.555 86.56C541.219 86.944 541.051 87.448 541.051 88.072C541.051 88.696 541.219 89.224 541.555 89.656C541.891 90.088 542.371 90.328 542.995 90.376L553.723 91.816C557.083 92.296 559.795 93.4 561.859 95.128C563.923 96.856 564.955 99.736 564.955 103.768V111.328C564.955 115.408 563.611 118.552 560.923 120.76C558.283 122.92 554.659 124 550.051 124Z"/>
</mask>
<path d="M90.4934 52H79.3334C78.4214 52 77.7494 51.808 77.3174 51.424C76.9334 50.992 76.7414 50.32 76.7414 49.408V2.752C76.7414 1.84 76.9334 1.192 77.3174 0.807999C77.7494 0.375998 78.4214 0.159998 79.3334 0.159998H101.365C107.893 0.159998 112.357 1.456 114.757 4.048C117.157 6.64 118.357 10.024 118.357 14.2V23.416C118.357 27.592 117.157 30.976 114.757 33.568C112.357 36.16 107.893 37.456 101.365 37.456H93.0854V49.408C93.0854 50.32 92.8694 50.992 92.4374 51.424C92.0534 51.808 91.4054 52 90.4934 52ZM92.9414 13.624V24.496H99.4214C100.813 24.496 101.725 24.136 102.157 23.416C102.589 22.696 102.805 21.88 102.805 20.968V17.152C102.805 16.24 102.589 15.424 102.157 14.704C101.725 13.984 100.813 13.624 99.4214 13.624H92.9414Z" fill="black" fill-opacity="0.2"/>
<path d="M165.06 52H128.412C127.5 52 126.828 51.808 126.396 51.424C126.012 50.992 125.82 50.32 125.82 49.408V2.752C125.82 1.84 126.012 1.192 126.396 0.807999C126.828 0.375998 127.5 0.159998 128.412 0.159998H139.572C140.484 0.159998 141.132 0.375998 141.516 0.807999C141.948 1.192 142.164 1.84 142.164 2.752V38.392H152.028V26.728C152.028 25.816 152.22 25.168 152.604 24.784C153.036 24.352 153.708 24.136 154.62 24.136H165.06C165.972 24.136 166.62 24.352 167.004 24.784C167.436 25.168 167.652 25.816 167.652 26.728V49.408C167.652 50.32 167.436 50.992 167.004 51.424C166.62 51.808 165.972 52 165.06 52Z" fill="black" fill-opacity="0.2"/>
<path d="M194.674 15.28L191.29 26.224H202.594L199.21 15.28C199.018 14.848 198.802 14.536 198.562 14.344C198.37 14.152 198.13 14.056 197.842 14.056H196.042C195.754 14.056 195.49 14.152 195.25 14.344C195.058 14.536 194.866 14.848 194.674 15.28ZM190.57 49.408C190.57 50.32 190.354 50.992 189.922 51.424C189.538 51.808 188.89 52 187.978 52H177.394C176.482 52 175.81 51.808 175.378 51.424C174.994 50.992 174.802 50.32 174.802 49.408V30.4C174.802 28.96 175.018 27.304 175.45 25.432C175.93 23.56 176.65 21.376 177.61 18.88L183.874 2.536C184.162 1.72 184.594 1.12 185.17 0.735999C185.794 0.351998 186.586 0.159998 187.546 0.159998H206.914C207.826 0.159998 208.57 0.351998 209.146 0.735999C209.77 1.12 210.226 1.72 210.514 2.536L216.778 18.88C217.738 21.376 218.434 23.56 218.866 25.432C219.346 27.304 219.586 28.96 219.586 30.4V49.408C219.586 50.32 219.37 50.992 218.938 51.424C218.554 51.808 217.906 52 216.994 52H206.122C205.162 52 204.442 51.808 203.962 51.424C203.53 50.992 203.314 50.32 203.314 49.408V39.328H190.57V49.408Z" fill="black" fill-opacity="0.2"/>
<path d="M252.928 52H241.264C240.352 52 239.68 51.808 239.248 51.424C238.864 50.992 238.672 50.32 238.672 49.408V40.192L227.656 25.432C226.552 23.944 225.808 22.648 225.424 21.544C225.088 20.44 224.92 18.784 224.92 16.576V2.752C224.92 1.84 225.112 1.192 225.496 0.807999C225.928 0.375998 226.6 0.159998 227.512 0.159998H238.6C239.512 0.159998 240.16 0.375998 240.544 0.807999C240.976 1.192 241.192 1.84 241.192 2.752V14.56C241.192 15.04 241.216 15.544 241.264 16.072C241.312 16.6 241.504 17.104 241.84 17.584L245.152 22.768C245.392 23.2 245.632 23.512 245.872 23.704C246.16 23.896 246.496 23.992 246.88 23.992H247.6C247.984 23.992 248.296 23.896 248.536 23.704C248.824 23.512 249.088 23.2 249.328 22.768L252.64 17.584C252.976 17.104 253.168 16.6 253.216 16.072C253.264 15.544 253.288 15.04 253.288 14.56V2.752C253.288 1.84 253.48 1.192 253.864 0.807999C254.296 0.375998 254.968 0.159998 255.88 0.159998H266.608C267.52 0.159998 268.168 0.375998 268.552 0.807999C268.984 1.192 269.2 1.84 269.2 2.752V16.576C269.2 18.784 269.008 20.44 268.624 21.544C268.24 22.648 267.52 23.944 266.464 25.432L255.52 40.264V49.408C255.52 50.32 255.304 50.992 254.872 51.424C254.488 51.808 253.84 52 252.928 52Z" fill="black" fill-opacity="0.2"/>
<path d="M330.106 0.159998H340.834C341.746 0.159998 342.394 0.375998 342.778 0.807999C343.21 1.192 343.426 1.84 343.426 2.752V30.688C343.426 32.224 343.354 33.664 343.21 35.008C343.114 36.304 342.754 37.84 342.13 39.616L338.53 49.408C338.29 50.128 337.93 50.752 337.45 51.28C337.018 51.76 336.418 52 335.65 52H326.074C325.306 52 324.61 51.832 323.986 51.496C323.362 51.16 322.954 50.608 322.762 49.84L319.45 38.104C319.306 37.624 319.114 37.312 318.874 37.168C318.682 36.976 318.442 36.88 318.154 36.88H317.506C317.218 36.88 316.954 36.976 316.714 37.168C316.522 37.312 316.354 37.624 316.21 38.104L312.826 49.84C312.634 50.56 312.274 51.112 311.746 51.496C311.218 51.832 310.57 52 309.802 52H300.298C299.53 52 298.858 51.76 298.282 51.28C297.754 50.8 297.37 50.176 297.13 49.408L293.53 39.472C292.906 37.696 292.522 36.16 292.378 34.864C292.282 33.52 292.234 32.08 292.234 30.544V2.752C292.234 1.84 292.426 1.192 292.81 0.807999C293.242 0.375998 293.914 0.159998 294.826 0.159998H305.914C306.826 0.159998 307.474 0.375998 307.858 0.807999C308.29 1.192 308.506 1.84 308.506 2.752V29.248L312.682 20.176C313.066 19.36 313.57 18.784 314.194 18.448C314.818 18.112 315.586 17.944 316.498 17.944H319.522C320.434 17.944 321.202 18.112 321.826 18.448C322.45 18.784 322.954 19.36 323.338 20.176L327.514 29.248V2.752C327.514 1.84 327.706 1.192 328.09 0.807999C328.522 0.375998 329.194 0.159998 330.106 0.159998Z" fill="black" fill-opacity="0.2"/>
<path d="M354.158 52C353.246 52 352.574 51.808 352.142 51.424C351.758 50.992 351.566 50.32 351.566 49.408V40.84C351.566 39.928 351.758 39.28 352.142 38.896C352.574 38.464 353.246 38.248 354.158 38.248H361.286V14.056H354.158C353.246 14.056 352.574 13.864 352.142 13.48C351.758 13.048 351.566 12.376 351.566 11.464V2.752C351.566 1.84 351.758 1.192 352.142 0.807999C352.574 0.375998 353.246 0.159998 354.158 0.159998H384.83C385.742 0.159998 386.39 0.375998 386.774 0.807999C387.206 1.192 387.422 1.84 387.422 2.752V11.464C387.422 12.376 387.206 13.048 386.774 13.48C386.39 13.864 385.742 14.056 384.83 14.056H377.846V38.248H384.83C385.742 38.248 386.39 38.464 386.774 38.896C387.206 39.28 387.422 39.928 387.422 40.84V49.408C387.422 50.32 387.206 50.992 386.774 51.424C386.39 51.808 385.742 52 384.83 52H354.158Z" fill="black" fill-opacity="0.2"/>
<path d="M420.792 52H409.128C408.216 52 407.544 51.808 407.112 51.424C406.728 50.992 406.536 50.32 406.536 49.408V14.056H395.952C395.04 14.056 394.368 13.864 393.936 13.48C393.552 13.048 393.36 12.376 393.36 11.464V2.752C393.36 1.84 393.552 1.192 393.936 0.807999C394.368 0.375998 395.04 0.159998 395.952 0.159998H433.968C434.88 0.159998 435.528 0.375998 435.912 0.807999C436.344 1.192 436.56 1.84 436.56 2.752V11.464C436.56 12.376 436.344 13.048 435.912 13.48C435.528 13.864 434.88 14.056 433.968 14.056H423.384V49.408C423.384 50.32 423.168 50.992 422.736 51.424C422.352 51.808 421.704 52 420.792 52Z" fill="black" fill-opacity="0.2"/>
<path d="M457.314 52H446.154C445.242 52 444.57 51.808 444.138 51.424C443.754 50.992 443.562 50.32 443.562 49.408V2.752C443.562 1.84 443.754 1.192 444.138 0.807999C444.57 0.375998 445.242 0.159998 446.154 0.159998H457.314C458.226 0.159998 458.874 0.375998 459.258 0.807999C459.69 1.192 459.906 1.84 459.906 2.752V18.376H471.93V2.752C471.93 1.84 472.122 1.192 472.506 0.807999C472.938 0.375998 473.61 0.159998 474.522 0.159998H485.682C486.594 0.159998 487.242 0.375998 487.626 0.807999C488.058 1.192 488.274 1.84 488.274 2.752V49.408C488.274 50.32 488.058 50.992 487.626 51.424C487.242 51.808 486.594 52 485.682 52H474.522C473.61 52 472.938 51.808 472.506 51.424C472.122 50.992 471.93 50.32 471.93 49.408V33.424H459.906V49.408C459.906 50.32 459.69 50.992 459.258 51.424C458.874 51.808 458.226 52 457.314 52Z" fill="black" fill-opacity="0.2"/>
<path d="M28.3847 124H16.7207C15.8087 124 15.1367 123.808 14.7047 123.424C14.3207 122.992 14.1287 122.32 14.1287 121.408V112.192L3.11272 97.432C2.00872 95.944 1.26472 94.648 0.880718 93.544C0.544718 92.44 0.376719 90.784 0.376719 88.576V74.752C0.376719 73.84 0.568718 73.192 0.952718 72.808C1.38472 72.376 2.05672 72.16 2.96872 72.16H14.0567C14.9687 72.16 15.6167 72.376 16.0007 72.808C16.4327 73.192 16.6487 73.84 16.6487 74.752V86.56C16.6487 87.04 16.6727 87.544 16.7207 88.072C16.7687 88.6 16.9607 89.104 17.2967 89.584L20.6087 94.768C20.8487 95.2 21.0887 95.512 21.3287 95.704C21.6167 95.896 21.9527 95.992 22.3367 95.992H23.0567C23.4407 95.992 23.7527 95.896 23.9927 95.704C24.2807 95.512 24.5447 95.2 24.7847 94.768L28.0967 89.584C28.4327 89.104 28.6247 88.6 28.6727 88.072C28.7207 87.544 28.7447 87.04 28.7447 86.56V74.752C28.7447 73.84 28.9367 73.192 29.3207 72.808C29.7527 72.376 30.4247 72.16 31.3367 72.16H42.0647C42.9767 72.16 43.6247 72.376 44.0087 72.808C44.4407 73.192 44.6567 73.84 44.6567 74.752V88.576C44.6567 90.784 44.4647 92.44 44.0807 93.544C43.6967 94.648 42.9767 95.944 41.9207 97.432L30.9767 112.264V121.408C30.9767 122.32 30.7607 122.992 30.3287 123.424C29.9447 123.808 29.2967 124 28.3847 124Z" fill="black" fill-opacity="0.2"/>
<path d="M96.7903 110.392C96.7903 112.6 96.4544 114.616 95.7824 116.44C95.1583 118.216 94.0063 119.752 92.3263 121.048C90.6943 122.296 88.4143 123.28 85.4863 124C82.6063 124.72 78.9343 125.08 74.4703 125.08C70.0063 125.08 66.3103 124.72 63.3823 124C60.4543 123.28 58.1503 122.296 56.4703 121.048C54.8383 119.752 53.6863 118.216 53.0143 116.44C52.3903 114.616 52.0783 112.6 52.0783 110.392V85.84C52.0783 83.632 52.3903 81.64 53.0143 79.864C53.6863 78.04 54.8383 76.48 56.4703 75.184C58.1503 73.888 60.4543 72.88 63.3823 72.16C66.3103 71.44 70.0063 71.08 74.4703 71.08C78.9343 71.08 82.6063 71.44 85.4863 72.16C88.4143 72.88 90.6943 73.888 92.3263 75.184C94.0063 76.48 95.1583 78.04 95.7824 79.864C96.4544 81.64 96.7903 83.632 96.7903 85.84V110.392ZM68.4223 107.8C68.4223 108.76 68.7823 109.576 69.5023 110.248C70.2223 110.872 71.8783 111.184 74.4703 111.184C77.0623 111.184 78.7183 110.872 79.4383 110.248C80.1583 109.576 80.5183 108.76 80.5183 107.8V88.432C80.5183 87.52 80.1583 86.752 79.4383 86.128C78.7183 85.456 77.0623 85.12 74.4703 85.12C71.8783 85.12 70.2223 85.456 69.5023 86.128C68.7823 86.752 68.4223 87.52 68.4223 88.432V107.8Z" fill="black" fill-opacity="0.2"/>
<path d="M150.092 110.392C150.092 112.6 149.756 114.616 149.084 116.44C148.46 118.216 147.308 119.752 145.628 121.048C143.996 122.296 141.74 123.28 138.86 124C135.98 124.72 132.308 125.08 127.844 125.08C123.38 125.08 119.708 124.72 116.828 124C113.948 123.28 111.668 122.296 109.988 121.048C108.356 119.752 107.204 118.216 106.532 116.44C105.908 114.616 105.596 112.6 105.596 110.392V74.752C105.596 73.84 105.788 73.192 106.172 72.808C106.604 72.376 107.276 72.16 108.188 72.16H119.492C120.404 72.16 121.052 72.376 121.436 72.808C121.868 73.192 122.084 73.84 122.084 74.752V107.584C122.084 108.544 122.444 109.36 123.164 110.032C123.884 110.656 125.492 110.968 127.988 110.968C130.532 110.968 132.164 110.656 132.884 110.032C133.604 109.36 133.964 108.544 133.964 107.584V74.752C133.964 73.84 134.156 73.192 134.54 72.808C134.972 72.376 135.644 72.16 136.556 72.16H147.5C148.412 72.16 149.06 72.376 149.444 72.808C149.876 73.192 150.092 73.84 150.092 74.752V110.392Z" fill="black" fill-opacity="0.2"/>
<path d="M175.947 85.12V94.336H181.347C182.595 94.336 183.435 94.024 183.867 93.4C184.299 92.728 184.515 91.912 184.515 90.952V88.504C184.515 87.544 184.299 86.752 183.867 86.128C183.435 85.456 182.595 85.12 181.347 85.12H175.947ZM173.355 124H162.267C161.355 124 160.683 123.808 160.251 123.424C159.867 122.992 159.675 122.32 159.675 121.408V74.752C159.675 73.84 159.867 73.192 160.251 72.808C160.683 72.376 161.355 72.16 162.267 72.16H186.243C191.619 72.16 195.315 73.288 197.331 75.544C199.395 77.752 200.427 80.632 200.427 84.184V87.496C200.427 89.512 200.115 91.24 199.491 92.68C198.915 94.072 197.883 95.08 196.395 95.704C198.987 95.992 201.075 97.048 202.659 98.872C204.291 100.696 205.107 103.12 205.107 106.144V121.408C205.107 122.32 204.891 122.992 204.459 123.424C204.075 123.808 203.427 124 202.515 124H191.355C190.443 124 189.771 123.808 189.339 123.424C188.955 122.992 188.763 122.32 188.763 121.408V110.392C188.763 109.336 188.547 108.568 188.115 108.088C187.731 107.56 187.035 107.296 186.027 107.296H175.947V121.408C175.947 122.32 175.731 122.992 175.299 123.424C174.915 123.808 174.267 124 173.355 124Z" fill="black" fill-opacity="0.2"/>
<path d="M243.107 124H231.947C231.035 124 230.363 123.808 229.931 123.424C229.547 122.992 229.355 122.32 229.355 121.408V74.752C229.355 73.84 229.547 73.192 229.931 72.808C230.363 72.376 231.035 72.16 231.947 72.16H264.059C264.971 72.16 265.619 72.376 266.003 72.808C266.435 73.192 266.651 73.84 266.651 74.752V83.32C266.651 84.232 266.435 84.904 266.003 85.336C265.619 85.72 264.971 85.912 264.059 85.912H245.699V93.4H258.227C259.139 93.4 259.787 93.616 260.171 94.048C260.603 94.432 260.819 95.08 260.819 95.992V104.632C260.819 105.544 260.603 106.216 260.171 106.648C259.787 107.032 259.139 107.224 258.227 107.224H245.699V121.408C245.699 122.32 245.483 122.992 245.051 123.424C244.667 123.808 244.019 124 243.107 124Z" fill="black" fill-opacity="0.2"/>
<path d="M290.135 85.12V94.336H295.535C296.783 94.336 297.623 94.024 298.055 93.4C298.487 92.728 298.703 91.912 298.703 90.952V88.504C298.703 87.544 298.487 86.752 298.055 86.128C297.623 85.456 296.783 85.12 295.535 85.12H290.135ZM287.543 124H276.455C275.543 124 274.871 123.808 274.439 123.424C274.055 122.992 273.863 122.32 273.863 121.408V74.752C273.863 73.84 274.055 73.192 274.439 72.808C274.871 72.376 275.543 72.16 276.455 72.16H300.431C305.807 72.16 309.503 73.288 311.519 75.544C313.583 77.752 314.615 80.632 314.615 84.184V87.496C314.615 89.512 314.303 91.24 313.679 92.68C313.103 94.072 312.071 95.08 310.583 95.704C313.175 95.992 315.263 97.048 316.847 98.872C318.479 100.696 319.295 103.12 319.295 106.144V121.408C319.295 122.32 319.079 122.992 318.647 123.424C318.263 123.808 317.615 124 316.703 124H305.543C304.631 124 303.959 123.808 303.527 123.424C303.143 122.992 302.951 122.32 302.951 121.408V110.392C302.951 109.336 302.735 108.568 302.303 108.088C301.919 107.56 301.223 107.296 300.215 107.296H290.135V121.408C290.135 122.32 289.919 122.992 289.487 123.424C289.103 123.808 288.455 124 287.543 124Z" fill="black" fill-opacity="0.2"/>
<path d="M328.81 124C327.898 124 327.226 123.808 326.794 123.424C326.41 122.992 326.218 122.32 326.218 121.408V112.84C326.218 111.928 326.41 111.28 326.794 110.896C327.226 110.464 327.898 110.248 328.81 110.248H335.938V86.056H328.81C327.898 86.056 327.226 85.864 326.794 85.48C326.41 85.048 326.218 84.376 326.218 83.464V74.752C326.218 73.84 326.41 73.192 326.794 72.808C327.226 72.376 327.898 72.16 328.81 72.16H359.482C360.394 72.16 361.042 72.376 361.426 72.808C361.858 73.192 362.074 73.84 362.074 74.752V83.464C362.074 84.376 361.858 85.048 361.426 85.48C361.042 85.864 360.394 86.056 359.482 86.056H352.498V110.248H359.482C360.394 110.248 361.042 110.464 361.426 110.896C361.858 111.28 362.074 111.928 362.074 112.84V121.408C362.074 122.32 361.858 122.992 361.426 123.424C361.042 123.808 360.394 124 359.482 124H328.81Z" fill="black" fill-opacity="0.2"/>
<path d="M406.964 124H373.556C372.644 124 371.972 123.808 371.54 123.424C371.156 122.992 370.964 122.32 370.964 121.408V74.752C370.964 73.84 371.156 73.192 371.54 72.808C371.972 72.376 372.644 72.16 373.556 72.16H406.964C407.876 72.16 408.524 72.376 408.908 72.808C409.34 73.192 409.556 73.84 409.556 74.752V83.176C409.556 84.088 409.34 84.76 408.908 85.192C408.524 85.576 407.876 85.768 406.964 85.768H387.092V91.312H401.132C402.044 91.312 402.692 91.528 403.076 91.96C403.508 92.344 403.724 92.992 403.724 93.904V101.608C403.724 102.52 403.508 103.192 403.076 103.624C402.692 104.008 402.044 104.2 401.132 104.2H387.092V110.392H406.964C407.876 110.392 408.524 110.608 408.908 111.04C409.34 111.424 409.556 112.072 409.556 112.984V121.408C409.556 122.32 409.34 122.992 408.908 123.424C408.524 123.808 407.876 124 406.964 124Z" fill="black" fill-opacity="0.2"/>
<path d="M431.465 124H420.665C419.753 124 419.081 123.808 418.649 123.424C418.265 122.992 418.073 122.32 418.073 121.408V74.752C418.073 73.84 418.265 73.192 418.649 72.808C419.081 72.376 419.753 72.16 420.665 72.16H428.153C429.065 72.16 429.833 72.304 430.457 72.592C431.129 72.88 431.777 73.384 432.401 74.104L446.369 90.088V74.752C446.369 73.84 446.561 73.192 446.945 72.808C447.377 72.376 448.049 72.16 448.961 72.16H459.761C460.673 72.16 461.321 72.376 461.705 72.808C462.137 73.192 462.353 73.84 462.353 74.752V121.408C462.353 122.32 462.137 122.992 461.705 123.424C461.321 123.808 460.673 124 459.761 124H448.961C448.049 124 447.377 123.808 446.945 123.424C446.561 122.992 446.369 122.32 446.369 121.408V112.552L434.057 97.648V121.408C434.057 122.32 433.841 122.992 433.409 123.424C433.025 123.808 432.377 124 431.465 124Z" fill="black" fill-opacity="0.2"/>
<path d="M499.14 124H474.876C473.964 124 473.292 123.808 472.86 123.424C472.476 122.992 472.284 122.32 472.284 121.408V74.752C472.284 73.84 472.476 73.192 472.86 72.808C473.292 72.376 473.964 72.16 474.876 72.16H499.14C505.14 72.16 509.58 73.36 512.46 75.76C515.388 78.16 516.852 81.856 516.852 86.848V109.312C516.852 114.304 515.388 118 512.46 120.4C509.58 122.8 505.14 124 499.14 124ZM488.628 85.912V110.392H497.196C498.348 110.392 499.188 110.104 499.716 109.528C500.292 108.952 500.58 108.064 500.58 106.864V89.368C500.58 88.168 500.292 87.304 499.716 86.776C499.188 86.2 498.348 85.912 497.196 85.912H488.628Z" fill="black" fill-opacity="0.2"/>
<path d="M550.051 124H527.299C526.387 124 525.715 123.808 525.283 123.424C524.899 122.992 524.707 122.32 524.707 121.408V112.984C524.707 112.072 524.899 111.424 525.283 111.04C525.715 110.608 526.387 110.392 527.299 110.392H546.667C547.291 110.392 547.747 110.2 548.035 109.816C548.371 109.384 548.539 108.88 548.539 108.304C548.539 107.488 548.371 106.888 548.035 106.504C547.747 106.12 547.291 105.904 546.667 105.856L535.867 104.344C532.507 103.864 529.795 102.76 527.731 101.032C525.715 99.304 524.707 96.424 524.707 92.392V84.832C524.707 80.752 526.027 77.632 528.667 75.472C531.307 73.264 534.955 72.16 539.611 72.16H559.771C560.683 72.16 561.331 72.376 561.715 72.808C562.147 73.192 562.363 73.84 562.363 74.752V83.32C562.363 84.232 562.147 84.904 561.715 85.336C561.331 85.72 560.683 85.912 559.771 85.912H542.995C542.371 85.912 541.891 86.128 541.555 86.56C541.219 86.944 541.051 87.448 541.051 88.072C541.051 88.696 541.219 89.224 541.555 89.656C541.891 90.088 542.371 90.328 542.995 90.376L553.723 91.816C557.083 92.296 559.795 93.4 561.859 95.128C563.923 96.856 564.955 99.736 564.955 103.768V111.328C564.955 115.408 563.611 118.552 560.923 120.76C558.283 122.92 554.659 124 550.051 124Z" fill="black" fill-opacity="0.2"/>
<path d="M90.4934 52H79.3334C78.4214 52 77.7494 51.808 77.3174 51.424C76.9334 50.992 76.7414 50.32 76.7414 49.408V2.752C76.7414 1.84 76.9334 1.192 77.3174 0.807999C77.7494 0.375998 78.4214 0.159998 79.3334 0.159998H101.365C107.893 0.159998 112.357 1.456 114.757 4.048C117.157 6.64 118.357 10.024 118.357 14.2V23.416C118.357 27.592 117.157 30.976 114.757 33.568C112.357 36.16 107.893 37.456 101.365 37.456H93.0854V49.408C93.0854 50.32 92.8694 50.992 92.4374 51.424C92.0534 51.808 91.4054 52 90.4934 52ZM92.9414 13.624V24.496H99.4214C100.813 24.496 101.725 24.136 102.157 23.416C102.589 22.696 102.805 21.88 102.805 20.968V17.152C102.805 16.24 102.589 15.424 102.157 14.704C101.725 13.984 100.813 13.624 99.4214 13.624H92.9414Z" stroke="black" stroke-width="6" mask="url(#path-2-inside-1)"/>
<path d="M165.06 52H128.412C127.5 52 126.828 51.808 126.396 51.424C126.012 50.992 125.82 50.32 125.82 49.408V2.752C125.82 1.84 126.012 1.192 126.396 0.807999C126.828 0.375998 127.5 0.159998 128.412 0.159998H139.572C140.484 0.159998 141.132 0.375998 141.516 0.807999C141.948 1.192 142.164 1.84 142.164 2.752V38.392H152.028V26.728C152.028 25.816 152.22 25.168 152.604 24.784C153.036 24.352 153.708 24.136 154.62 24.136H165.06C165.972 24.136 166.62 24.352 167.004 24.784C167.436 25.168 167.652 25.816 167.652 26.728V49.408C167.652 50.32 167.436 50.992 167.004 51.424C166.62 51.808 165.972 52 165.06 52Z" stroke="black" stroke-width="6" mask="url(#path-2-inside-1)"/>
<path d="M194.674 15.28L191.29 26.224H202.594L199.21 15.28C199.018 14.848 198.802 14.536 198.562 14.344C198.37 14.152 198.13 14.056 197.842 14.056H196.042C195.754 14.056 195.49 14.152 195.25 14.344C195.058 14.536 194.866 14.848 194.674 15.28ZM190.57 49.408C190.57 50.32 190.354 50.992 189.922 51.424C189.538 51.808 188.89 52 187.978 52H177.394C176.482 52 175.81 51.808 175.378 51.424C174.994 50.992 174.802 50.32 174.802 49.408V30.4C174.802 28.96 175.018 27.304 175.45 25.432C175.93 23.56 176.65 21.376 177.61 18.88L183.874 2.536C184.162 1.72 184.594 1.12 185.17 0.735999C185.794 0.351998 186.586 0.159998 187.546 0.159998H206.914C207.826 0.159998 208.57 0.351998 209.146 0.735999C209.77 1.12 210.226 1.72 210.514 2.536L216.778 18.88C217.738 21.376 218.434 23.56 218.866 25.432C219.346 27.304 219.586 28.96 219.586 30.4V49.408C219.586 50.32 219.37 50.992 218.938 51.424C218.554 51.808 217.906 52 216.994 52H206.122C205.162 52 204.442 51.808 203.962 51.424C203.53 50.992 203.314 50.32 203.314 49.408V39.328H190.57V49.408Z" stroke="black" stroke-width="6" mask="url(#path-2-inside-1)"/>
<path d="M252.928 52H241.264C240.352 52 239.68 51.808 239.248 51.424C238.864 50.992 238.672 50.32 238.672 49.408V40.192L227.656 25.432C226.552 23.944 225.808 22.648 225.424 21.544C225.088 20.44 224.92 18.784 224.92 16.576V2.752C224.92 1.84 225.112 1.192 225.496 0.807999C225.928 0.375998 226.6 0.159998 227.512 0.159998H238.6C239.512 0.159998 240.16 0.375998 240.544 0.807999C240.976 1.192 241.192 1.84 241.192 2.752V14.56C241.192 15.04 241.216 15.544 241.264 16.072C241.312 16.6 241.504 17.104 241.84 17.584L245.152 22.768C245.392 23.2 245.632 23.512 245.872 23.704C246.16 23.896 246.496 23.992 246.88 23.992H247.6C247.984 23.992 248.296 23.896 248.536 23.704C248.824 23.512 249.088 23.2 249.328 22.768L252.64 17.584C252.976 17.104 253.168 16.6 253.216 16.072C253.264 15.544 253.288 15.04 253.288 14.56V2.752C253.288 1.84 253.48 1.192 253.864 0.807999C254.296 0.375998 254.968 0.159998 255.88 0.159998H266.608C267.52 0.159998 268.168 0.375998 268.552 0.807999C268.984 1.192 269.2 1.84 269.2 2.752V16.576C269.2 18.784 269.008 20.44 268.624 21.544C268.24 22.648 267.52 23.944 266.464 25.432L255.52 40.264V49.408C255.52 50.32 255.304 50.992 254.872 51.424C254.488 51.808 253.84 52 252.928 52Z" stroke="black" stroke-width="6" mask="url(#path-2-inside-1)"/>
<path d="M330.106 0.159998H340.834C341.746 0.159998 342.394 0.375998 342.778 0.807999C343.21 1.192 343.426 1.84 343.426 2.752V30.688C343.426 32.224 343.354 33.664 343.21 35.008C343.114 36.304 342.754 37.84 342.13 39.616L338.53 49.408C338.29 50.128 337.93 50.752 337.45 51.28C337.018 51.76 336.418 52 335.65 52H326.074C325.306 52 324.61 51.832 323.986 51.496C323.362 51.16 322.954 50.608 322.762 49.84L319.45 38.104C319.306 37.624 319.114 37.312 318.874 37.168C318.682 36.976 318.442 36.88 318.154 36.88H317.506C317.218 36.88 316.954 36.976 316.714 37.168C316.522 37.312 316.354 37.624 316.21 38.104L312.826 49.84C312.634 50.56 312.274 51.112 311.746 51.496C311.218 51.832 310.57 52 309.802 52H300.298C299.53 52 298.858 51.76 298.282 51.28C297.754 50.8 297.37 50.176 297.13 49.408L293.53 39.472C292.906 37.696 292.522 36.16 292.378 34.864C292.282 33.52 292.234 32.08 292.234 30.544V2.752C292.234 1.84 292.426 1.192 292.81 0.807999C293.242 0.375998 293.914 0.159998 294.826 0.159998H305.914C306.826 0.159998 307.474 0.375998 307.858 0.807999C308.29 1.192 308.506 1.84 308.506 2.752V29.248L312.682 20.176C313.066 19.36 313.57 18.784 314.194 18.448C314.818 18.112 315.586 17.944 316.498 17.944H319.522C320.434 17.944 321.202 18.112 321.826 18.448C322.45 18.784 322.954 19.36 323.338 20.176L327.514 29.248V2.752C327.514 1.84 327.706 1.192 328.09 0.807999C328.522 0.375998 329.194 0.159998 330.106 0.159998Z" stroke="black" stroke-width="6" mask="url(#path-2-inside-1)"/>
<path d="M354.158 52C353.246 52 352.574 51.808 352.142 51.424C351.758 50.992 351.566 50.32 351.566 49.408V40.84C351.566 39.928 351.758 39.28 352.142 38.896C352.574 38.464 353.246 38.248 354.158 38.248H361.286V14.056H354.158C353.246 14.056 352.574 13.864 352.142 13.48C351.758 13.048 351.566 12.376 351.566 11.464V2.752C351.566 1.84 351.758 1.192 352.142 0.807999C352.574 0.375998 353.246 0.159998 354.158 0.159998H384.83C385.742 0.159998 386.39 0.375998 386.774 0.807999C387.206 1.192 387.422 1.84 387.422 2.752V11.464C387.422 12.376 387.206 13.048 386.774 13.48C386.39 13.864 385.742 14.056 384.83 14.056H377.846V38.248H384.83C385.742 38.248 386.39 38.464 386.774 38.896C387.206 39.28 387.422 39.928 387.422 40.84V49.408C387.422 50.32 387.206 50.992 386.774 51.424C386.39 51.808 385.742 52 384.83 52H354.158Z" stroke="black" stroke-width="6" mask="url(#path-2-inside-1)"/>
<path d="M420.792 52H409.128C408.216 52 407.544 51.808 407.112 51.424C406.728 50.992 406.536 50.32 406.536 49.408V14.056H395.952C395.04 14.056 394.368 13.864 393.936 13.48C393.552 13.048 393.36 12.376 393.36 11.464V2.752C393.36 1.84 393.552 1.192 393.936 0.807999C394.368 0.375998 395.04 0.159998 395.952 0.159998H433.968C434.88 0.159998 435.528 0.375998 435.912 0.807999C436.344 1.192 436.56 1.84 436.56 2.752V11.464C436.56 12.376 436.344 13.048 435.912 13.48C435.528 13.864 434.88 14.056 433.968 14.056H423.384V49.408C423.384 50.32 423.168 50.992 422.736 51.424C422.352 51.808 421.704 52 420.792 52Z" stroke="black" stroke-width="6" mask="url(#path-2-inside-1)"/>
<path d="M457.314 52H446.154C445.242 52 444.57 51.808 444.138 51.424C443.754 50.992 443.562 50.32 443.562 49.408V2.752C443.562 1.84 443.754 1.192 444.138 0.807999C444.57 0.375998 445.242 0.159998 446.154 0.159998H457.314C458.226 0.159998 458.874 0.375998 459.258 0.807999C459.69 1.192 459.906 1.84 459.906 2.752V18.376H471.93V2.752C471.93 1.84 472.122 1.192 472.506 0.807999C472.938 0.375998 473.61 0.159998 474.522 0.159998H485.682C486.594 0.159998 487.242 0.375998 487.626 0.807999C488.058 1.192 488.274 1.84 488.274 2.752V49.408C488.274 50.32 488.058 50.992 487.626 51.424C487.242 51.808 486.594 52 485.682 52H474.522C473.61 52 472.938 51.808 472.506 51.424C472.122 50.992 471.93 50.32 471.93 49.408V33.424H459.906V49.408C459.906 50.32 459.69 50.992 459.258 51.424C458.874 51.808 458.226 52 457.314 52Z" stroke="black" stroke-width="6" mask="url(#path-2-inside-1)"/>
<path d="M28.3847 124H16.7207C15.8087 124 15.1367 123.808 14.7047 123.424C14.3207 122.992 14.1287 122.32 14.1287 121.408V112.192L3.11272 97.432C2.00872 95.944 1.26472 94.648 0.880718 93.544C0.544718 92.44 0.376719 90.784 0.376719 88.576V74.752C0.376719 73.84 0.568718 73.192 0.952718 72.808C1.38472 72.376 2.05672 72.16 2.96872 72.16H14.0567C14.9687 72.16 15.6167 72.376 16.0007 72.808C16.4327 73.192 16.6487 73.84 16.6487 74.752V86.56C16.6487 87.04 16.6727 87.544 16.7207 88.072C16.7687 88.6 16.9607 89.104 17.2967 89.584L20.6087 94.768C20.8487 95.2 21.0887 95.512 21.3287 95.704C21.6167 95.896 21.9527 95.992 22.3367 95.992H23.0567C23.4407 95.992 23.7527 95.896 23.9927 95.704C24.2807 95.512 24.5447 95.2 24.7847 94.768L28.0967 89.584C28.4327 89.104 28.6247 88.6 28.6727 88.072C28.7207 87.544 28.7447 87.04 28.7447 86.56V74.752C28.7447 73.84 28.9367 73.192 29.3207 72.808C29.7527 72.376 30.4247 72.16 31.3367 72.16H42.0647C42.9767 72.16 43.6247 72.376 44.0087 72.808C44.4407 73.192 44.6567 73.84 44.6567 74.752V88.576C44.6567 90.784 44.4647 92.44 44.0807 93.544C43.6967 94.648 42.9767 95.944 41.9207 97.432L30.9767 112.264V121.408C30.9767 122.32 30.7607 122.992 30.3287 123.424C29.9447 123.808 29.2967 124 28.3847 124Z" stroke="black" stroke-width="6" mask="url(#path-2-inside-1)"/>
<path d="M96.7903 110.392C96.7903 112.6 96.4544 114.616 95.7824 116.44C95.1583 118.216 94.0063 119.752 92.3263 121.048C90.6943 122.296 88.4143 123.28 85.4863 124C82.6063 124.72 78.9343 125.08 74.4703 125.08C70.0063 125.08 66.3103 124.72 63.3823 124C60.4543 123.28 58.1503 122.296 56.4703 121.048C54.8383 119.752 53.6863 118.216 53.0143 116.44C52.3903 114.616 52.0783 112.6 52.0783 110.392V85.84C52.0783 83.632 52.3903 81.64 53.0143 79.864C53.6863 78.04 54.8383 76.48 56.4703 75.184C58.1503 73.888 60.4543 72.88 63.3823 72.16C66.3103 71.44 70.0063 71.08 74.4703 71.08C78.9343 71.08 82.6063 71.44 85.4863 72.16C88.4143 72.88 90.6943 73.888 92.3263 75.184C94.0063 76.48 95.1583 78.04 95.7824 79.864C96.4544 81.64 96.7903 83.632 96.7903 85.84V110.392ZM68.4223 107.8C68.4223 108.76 68.7823 109.576 69.5023 110.248C70.2223 110.872 71.8783 111.184 74.4703 111.184C77.0623 111.184 78.7183 110.872 79.4383 110.248C80.1583 109.576 80.5183 108.76 80.5183 107.8V88.432C80.5183 87.52 80.1583 86.752 79.4383 86.128C78.7183 85.456 77.0623 85.12 74.4703 85.12C71.8783 85.12 70.2223 85.456 69.5023 86.128C68.7823 86.752 68.4223 87.52 68.4223 88.432V107.8Z" stroke="black" stroke-width="6" mask="url(#path-2-inside-1)"/>
<path d="M150.092 110.392C150.092 112.6 149.756 114.616 149.084 116.44C148.46 118.216 147.308 119.752 145.628 121.048C143.996 122.296 141.74 123.28 138.86 124C135.98 124.72 132.308 125.08 127.844 125.08C123.38 125.08 119.708 124.72 116.828 124C113.948 123.28 111.668 122.296 109.988 121.048C108.356 119.752 107.204 118.216 106.532 116.44C105.908 114.616 105.596 112.6 105.596 110.392V74.752C105.596 73.84 105.788 73.192 106.172 72.808C106.604 72.376 107.276 72.16 108.188 72.16H119.492C120.404 72.16 121.052 72.376 121.436 72.808C121.868 73.192 122.084 73.84 122.084 74.752V107.584C122.084 108.544 122.444 109.36 123.164 110.032C123.884 110.656 125.492 110.968 127.988 110.968C130.532 110.968 132.164 110.656 132.884 110.032C133.604 109.36 133.964 108.544 133.964 107.584V74.752C133.964 73.84 134.156 73.192 134.54 72.808C134.972 72.376 135.644 72.16 136.556 72.16H147.5C148.412 72.16 149.06 72.376 149.444 72.808C149.876 73.192 150.092 73.84 150.092 74.752V110.392Z" stroke="black" stroke-width="6" mask="url(#path-2-inside-1)"/>
<path d="M175.947 85.12V94.336H181.347C182.595 94.336 183.435 94.024 183.867 93.4C184.299 92.728 184.515 91.912 184.515 90.952V88.504C184.515 87.544 184.299 86.752 183.867 86.128C183.435 85.456 182.595 85.12 181.347 85.12H175.947ZM173.355 124H162.267C161.355 124 160.683 123.808 160.251 123.424C159.867 122.992 159.675 122.32 159.675 121.408V74.752C159.675 73.84 159.867 73.192 160.251 72.808C160.683 72.376 161.355 72.16 162.267 72.16H186.243C191.619 72.16 195.315 73.288 197.331 75.544C199.395 77.752 200.427 80.632 200.427 84.184V87.496C200.427 89.512 200.115 91.24 199.491 92.68C198.915 94.072 197.883 95.08 196.395 95.704C198.987 95.992 201.075 97.048 202.659 98.872C204.291 100.696 205.107 103.12 205.107 106.144V121.408C205.107 122.32 204.891 122.992 204.459 123.424C204.075 123.808 203.427 124 202.515 124H191.355C190.443 124 189.771 123.808 189.339 123.424C188.955 122.992 188.763 122.32 188.763 121.408V110.392C188.763 109.336 188.547 108.568 188.115 108.088C187.731 107.56 187.035 107.296 186.027 107.296H175.947V121.408C175.947 122.32 175.731 122.992 175.299 123.424C174.915 123.808 174.267 124 173.355 124Z" stroke="black" stroke-width="6" mask="url(#path-2-inside-1)"/>
<path d="M243.107 124H231.947C231.035 124 230.363 123.808 229.931 123.424C229.547 122.992 229.355 122.32 229.355 121.408V74.752C229.355 73.84 229.547 73.192 229.931 72.808C230.363 72.376 231.035 72.16 231.947 72.16H264.059C264.971 72.16 265.619 72.376 266.003 72.808C266.435 73.192 266.651 73.84 266.651 74.752V83.32C266.651 84.232 266.435 84.904 266.003 85.336C265.619 85.72 264.971 85.912 264.059 85.912H245.699V93.4H258.227C259.139 93.4 259.787 93.616 260.171 94.048C260.603 94.432 260.819 95.08 260.819 95.992V104.632C260.819 105.544 260.603 106.216 260.171 106.648C259.787 107.032 259.139 107.224 258.227 107.224H245.699V121.408C245.699 122.32 245.483 122.992 245.051 123.424C244.667 123.808 244.019 124 243.107 124Z" stroke="black" stroke-width="6" mask="url(#path-2-inside-1)"/>
<path d="M290.135 85.12V94.336H295.535C296.783 94.336 297.623 94.024 298.055 93.4C298.487 92.728 298.703 91.912 298.703 90.952V88.504C298.703 87.544 298.487 86.752 298.055 86.128C297.623 85.456 296.783 85.12 295.535 85.12H290.135ZM287.543 124H276.455C275.543 124 274.871 123.808 274.439 123.424C274.055 122.992 273.863 122.32 273.863 121.408V74.752C273.863 73.84 274.055 73.192 274.439 72.808C274.871 72.376 275.543 72.16 276.455 72.16H300.431C305.807 72.16 309.503 73.288 311.519 75.544C313.583 77.752 314.615 80.632 314.615 84.184V87.496C314.615 89.512 314.303 91.24 313.679 92.68C313.103 94.072 312.071 95.08 310.583 95.704C313.175 95.992 315.263 97.048 316.847 98.872C318.479 100.696 319.295 103.12 319.295 106.144V121.408C319.295 122.32 319.079 122.992 318.647 123.424C318.263 123.808 317.615 124 316.703 124H305.543C304.631 124 303.959 123.808 303.527 123.424C303.143 122.992 302.951 122.32 302.951 121.408V110.392C302.951 109.336 302.735 108.568 302.303 108.088C301.919 107.56 301.223 107.296 300.215 107.296H290.135V121.408C290.135 122.32 289.919 122.992 289.487 123.424C289.103 123.808 288.455 124 287.543 124Z" stroke="black" stroke-width="6" mask="url(#path-2-inside-1)"/>
<path d="M328.81 124C327.898 124 327.226 123.808 326.794 123.424C326.41 122.992 326.218 122.32 326.218 121.408V112.84C326.218 111.928 326.41 111.28 326.794 110.896C327.226 110.464 327.898 110.248 328.81 110.248H335.938V86.056H328.81C327.898 86.056 327.226 85.864 326.794 85.48C326.41 85.048 326.218 84.376 326.218 83.464V74.752C326.218 73.84 326.41 73.192 326.794 72.808C327.226 72.376 327.898 72.16 328.81 72.16H359.482C360.394 72.16 361.042 72.376 361.426 72.808C361.858 73.192 362.074 73.84 362.074 74.752V83.464C362.074 84.376 361.858 85.048 361.426 85.48C361.042 85.864 360.394 86.056 359.482 86.056H352.498V110.248H359.482C360.394 110.248 361.042 110.464 361.426 110.896C361.858 111.28 362.074 111.928 362.074 112.84V121.408C362.074 122.32 361.858 122.992 361.426 123.424C361.042 123.808 360.394 124 359.482 124H328.81Z" stroke="black" stroke-width="6" mask="url(#path-2-inside-1)"/>
<path d="M406.964 124H373.556C372.644 124 371.972 123.808 371.54 123.424C371.156 122.992 370.964 122.32 370.964 121.408V74.752C370.964 73.84 371.156 73.192 371.54 72.808C371.972 72.376 372.644 72.16 373.556 72.16H406.964C407.876 72.16 408.524 72.376 408.908 72.808C409.34 73.192 409.556 73.84 409.556 74.752V83.176C409.556 84.088 409.34 84.76 408.908 85.192C408.524 85.576 407.876 85.768 406.964 85.768H387.092V91.312H401.132C402.044 91.312 402.692 91.528 403.076 91.96C403.508 92.344 403.724 92.992 403.724 93.904V101.608C403.724 102.52 403.508 103.192 403.076 103.624C402.692 104.008 402.044 104.2 401.132 104.2H387.092V110.392H406.964C407.876 110.392 408.524 110.608 408.908 111.04C409.34 111.424 409.556 112.072 409.556 112.984V121.408C409.556 122.32 409.34 122.992 408.908 123.424C408.524 123.808 407.876 124 406.964 124Z" stroke="black" stroke-width="6" mask="url(#path-2-inside-1)"/>
<path d="M431.465 124H420.665C419.753 124 419.081 123.808 418.649 123.424C418.265 122.992 418.073 122.32 418.073 121.408V74.752C418.073 73.84 418.265 73.192 418.649 72.808C419.081 72.376 419.753 72.16 420.665 72.16H428.153C429.065 72.16 429.833 72.304 430.457 72.592C431.129 72.88 431.777 73.384 432.401 74.104L446.369 90.088V74.752C446.369 73.84 446.561 73.192 446.945 72.808C447.377 72.376 448.049 72.16 448.961 72.16H459.761C460.673 72.16 461.321 72.376 461.705 72.808C462.137 73.192 462.353 73.84 462.353 74.752V121.408C462.353 122.32 462.137 122.992 461.705 123.424C461.321 123.808 460.673 124 459.761 124H448.961C448.049 124 447.377 123.808 446.945 123.424C446.561 122.992 446.369 122.32 446.369 121.408V112.552L434.057 97.648V121.408C434.057 122.32 433.841 122.992 433.409 123.424C433.025 123.808 432.377 124 431.465 124Z" stroke="black" stroke-width="6" mask="url(#path-2-inside-1)"/>
<path d="M499.14 124H474.876C473.964 124 473.292 123.808 472.86 123.424C472.476 122.992 472.284 122.32 472.284 121.408V74.752C472.284 73.84 472.476 73.192 472.86 72.808C473.292 72.376 473.964 72.16 474.876 72.16H499.14C505.14 72.16 509.58 73.36 512.46 75.76C515.388 78.16 516.852 81.856 516.852 86.848V109.312C516.852 114.304 515.388 118 512.46 120.4C509.58 122.8 505.14 124 499.14 124ZM488.628 85.912V110.392H497.196C498.348 110.392 499.188 110.104 499.716 109.528C500.292 108.952 500.58 108.064 500.58 106.864V89.368C500.58 88.168 500.292 87.304 499.716 86.776C499.188 86.2 498.348 85.912 497.196 85.912H488.628Z" stroke="black" stroke-width="6" mask="url(#path-2-inside-1)"/>
<path d="M550.051 124H527.299C526.387 124 525.715 123.808 525.283 123.424C524.899 122.992 524.707 122.32 524.707 121.408V112.984C524.707 112.072 524.899 111.424 525.283 111.04C525.715 110.608 526.387 110.392 527.299 110.392H546.667C547.291 110.392 547.747 110.2 548.035 109.816C548.371 109.384 548.539 108.88 548.539 108.304C548.539 107.488 548.371 106.888 548.035 106.504C547.747 106.12 547.291 105.904 546.667 105.856L535.867 104.344C532.507 103.864 529.795 102.76 527.731 101.032C525.715 99.304 524.707 96.424 524.707 92.392V84.832C524.707 80.752 526.027 77.632 528.667 75.472C531.307 73.264 534.955 72.16 539.611 72.16H559.771C560.683 72.16 561.331 72.376 561.715 72.808C562.147 73.192 562.363 73.84 562.363 74.752V83.32C562.363 84.232 562.147 84.904 561.715 85.336C561.331 85.72 560.683 85.912 559.771 85.912H542.995C542.371 85.912 541.891 86.128 541.555 86.56C541.219 86.944 541.051 87.448 541.051 88.072C541.051 88.696 541.219 89.224 541.555 89.656C541.891 90.088 542.371 90.328 542.995 90.376L553.723 91.816C557.083 92.296 559.795 93.4 561.859 95.128C563.923 96.856 564.955 99.736 564.955 103.768V111.328C564.955 115.408 563.611 118.552 560.923 120.76C558.283 122.92 554.659 124 550.051 124Z" stroke="black" stroke-width="6" mask="url(#path-2-inside-1)"/>
</g>
<defs>
<clipPath id="clip0">
<rect width="565" height="125" fill="white"/>
</clipPath>
</defs>
</svg>